<svg width="322" height="279" viewBox="0 0 322 279" fill="none" xmlns="http://www.w3.org/2000/svg">
<circle cx="44" cy="125" r="10" fill="#EB969A"/>
<circle cx="99.5" cy="22.5" r="15.5" fill="#F7B9A9"/>
<circle cx="160.5" cy="250.5" r="9.5" fill="#EB969A"/>
<circle cx="228" cy="23" r="21" fill="#F7B9A9"/>
<circle cx="305" cy="130" r="17" fill="#F7B9A9"/>
<path d="M285 72.5C285 84.3741 275.374 94 263.5 94C251.626 94 242 84.3741 242 72.5C242 60.6259 251.626 51 263.5 51C275.374 51 285 60.6259 285 72.5ZM252.75 72.5C252.75 78.4371 257.563 83.25 263.5 83.25C269.437 83.25 274.25 78.4371 274.25 72.5C274.25 66.5629 269.437 61.75 263.5 61.75C257.563 61.75 252.75 66.5629 252.75 72.5Z" fill="#C49FB6"/>
<path d="M275 200C275 207.732 268.732 214 261 214C253.268 214 247 207.732 247 200C247 192.268 253.268 186 261 186C268.732 186 275 192.268 275 200ZM254 200C254 203.866 257.134 207 261 207C264.866 207 268 203.866 268 200C268 196.134 264.866 193 261 193C257.134 193 254 196.134 254 200Z" fill="#C49FB6"/>
<path d="M71 202C71 213.046 62.0457 222 51 222C39.9543 222 31 213.046 31 202C31 190.954 39.9543 182 51 182C62.0457 182 71 190.954 71 202ZM41 202C41 207.523 45.4772 212 51 212C56.5228 212 61 207.523 61 202C61 196.477 56.5228 192 51 192C45.4772 192 41 196.477 41 202Z" fill="#C49FB6"/>
<path d="M59 70.5C59 79.0604 52.0604 86 43.5 86C34.9396 86 28 79.0604 28 70.5C28 61.9396 34.9396 55 43.5 55C52.0604 55 59 61.9396 59 70.5ZM36.215 70.5C36.215 74.5234 39.4766 77.785 43.5 77.785C47.5234 77.785 50.785 74.5234 50.785 70.5C50.785 66.4766 47.5234 63.215 43.5 63.215C39.4766 63.215 36.215 66.4766 36.215 70.5Z" fill="#C49FB6"/>
<circle cx="4.5" cy="59.5" r="4.5" fill="#EB969A"/>
<circle cx="267.5" cy="161.5" r="4.5" fill="#EB969A"/>
<circle cx="201.5" cy="65.5" r="4.5" fill="#EB969A"/>
<path d="M186 11C186 17.0751 181.075 22 175 22C168.925 22 164 17.0751 164 11C164 4.92487 168.925 0 175 0C181.075 0 186 4.92487 186 11ZM169.06 11C169.06 14.2806 171.719 16.94 175 16.94C178.281 16.94 180.94 14.2806 180.94 11C180.94 7.71943 178.281 5.06 175 5.06C171.719 5.06 169.06 7.71943 169.06 11Z" fill="#F0CECE"/>
<path d="M215 258.5C215 263.194 211.194 267 206.5 267C201.806 267 198 263.194 198 258.5C198 253.806 201.806 250 206.5 250C211.194 250 215 253.806 215 258.5ZM201.91 258.5C201.91 261.035 203.965 263.09 206.5 263.09C209.035 263.09 211.09 261.035 211.09 258.5C211.09 255.965 209.035 253.91 206.5 253.91C203.965 253.91 201.91 255.965 201.91 258.5Z" fill="#F0CECE"/>
<path d="M314 194C314 197.314 311.314 200 308 200C304.686 200 302 197.314 302 194C302 190.686 304.686 188 308 188C311.314 188 314 190.686 314 194ZM304.76 194C304.76 195.789 306.211 197.24 308 197.24C309.789 197.24 311.24 195.789 311.24 194C311.24 192.211 309.789 190.76 308 190.76C306.211 190.76 304.76 192.211 304.76 194Z" fill="#F0CECE"/>
<path d="M114 273C114 276.314 111.314 279 108 279C104.686 279 102 276.314 102 273C102 269.686 104.686 267 108 267C111.314 267 114 269.686 114 273ZM104.76 273C104.76 274.789 106.211 276.24 108 276.24C109.789 276.24 111.24 274.789 111.24 273C111.24 271.211 109.789 269.76 108 269.76C106.211 269.76 104.76 271.211 104.76 273Z" fill="#F0CECE"/>
<path d="M15 165C15 168.314 12.3137 171 9 171C5.68629 171 3 168.314 3 165C3 161.686 5.68629 159 9 159C12.3137 159 15 161.686 15 165ZM5.76 165C5.76 166.789 7.2106 168.24 9 168.24C10.7894 168.24 12.24 166.789 12.24 165C12.24 163.211 10.7894 161.76 9 161.76C7.2106 161.76 5.76 163.211 5.76 165Z" fill="#F2BAB5"/>
<path d="M199.46 113.377C200.61 115.102 201.76 116.775 202.909 118.499C203.85 118.656 204.268 119.335 204.791 120.067C206.098 121.949 206.62 124.196 207.979 126.025C210.331 130.416 212.317 134.963 214.46 139.457C214.512 141.391 215.923 142.698 216.603 144.37C217.962 147.715 219.268 151.112 220.732 154.457C221.672 156.652 221.568 159.004 222.09 161.252C222.247 162.663 222.352 164.074 222.509 165.537C221.934 170.555 219.425 174.997 217.7 180.014C219.425 179.649 220.732 179.074 222.09 178.656C223.293 178.29 224.495 178.081 225.644 178.812C231.498 178.185 237.352 178.237 243.153 179.596C250.888 181.426 257.055 185.398 260.923 192.506C261.602 193.76 262.386 195.119 260.923 196.425C259.982 194.753 257.996 194.021 257.108 192.244C256.637 191.251 255.487 191.722 254.599 191.617C254.39 191.565 254.233 191.513 254.076 191.408C253.345 190.99 252.979 189.788 251.777 190.52C251.62 190.572 251.411 190.572 251.202 190.572C250.313 189.474 249.268 190.154 248.275 190.311C247.282 190.311 246.393 190.258 245.819 189.265C243.989 188.899 242.108 188.324 240.592 190.049C240.331 190.154 240.069 190.258 239.808 190.311C238.711 190.258 237.718 190.676 236.568 189.945C235.731 189.422 234.582 189.945 233.954 190.99C233.798 191.094 233.641 191.199 233.484 191.251C232.543 191.304 231.707 189.997 230.714 191.147C230.557 191.251 230.401 191.304 230.191 191.304C229.46 191.147 228.937 190.624 228.205 190.52C226.01 189.736 224.077 190.31 222.143 191.408C221.307 191.617 220.366 191.513 219.634 192.192C218.066 192.662 216.341 192.662 214.983 193.76C214.669 193.917 214.408 193.917 214.094 193.864C212.213 193.133 210.801 194.074 209.913 195.641C207.456 200.032 205.105 204.422 201.812 208.342C199.565 211.059 197.16 213.62 194.547 215.972C191.986 218.22 188.641 218.69 185.453 219.16C178.816 220.153 172.074 220.624 165.384 220.363C157.858 220.049 150.279 219.788 142.753 218.847C141.656 218.69 140.61 218.376 139.67 217.749C138.154 214.979 138.363 211.791 137.788 208.812C136.638 202.279 134.861 196.007 131.725 190.101C128.694 184.405 124.304 180.694 117.719 179.701C110.454 178.603 103.189 178.342 95.8721 178.865C90.5411 179.23 85.2101 179.544 79.8792 180.067C79.252 180.119 78.5726 180.067 77.9977 179.753C76.8479 178.865 77.0569 177.715 77.5273 176.565C80.0882 170.032 83.6945 164.178 88.1892 158.795C90.0707 156.548 92.3704 154.718 94.4609 152.68C95.663 152.523 96.8651 152.523 98.0149 152.158C103.921 153.412 109.879 154.509 115.837 155.502C123.415 156.757 130.994 157.907 138.572 159.056C139.147 159.161 139.722 159.161 140.245 159.475C143.694 161.461 143.798 164.962 143.903 168.307C144.06 173.847 144.478 179.335 144.373 184.875C144.321 188.324 145.314 191.669 146.046 195.067C146.673 197.993 147.352 200.92 147.98 203.847C148.816 207.819 150.122 208.603 154.199 207.871C162.561 207.924 170.924 208.185 179.286 207.767C180.802 207.192 182.317 208.551 183.833 207.819C184.565 207.453 184.931 206.722 185.244 205.99C189.216 196.687 193.031 187.331 196.115 177.715C196.376 176.826 196.585 175.938 196.638 175.049C196.69 174.788 196.69 174.527 196.795 174.265C200.087 168.359 199.983 162.088 198.572 155.764C195.854 143.429 192.666 131.2 189.321 118.97C188.955 117.506 188.014 116.043 188.955 114.475C192.404 113.534 195.906 112.907 199.46 113.377Z" fill="#FE7D57"/>
<path d="M59.1299 87.1929C61.534 80.085 65.3493 74.0746 72.3005 70.4683C77.7883 67.5938 83.1715 64.5102 87.4049 59.8064C89.3387 57.6636 91.0634 55.3639 92.3177 52.803C95.5581 46.2177 100.419 41.0435 106.325 36.7578C109.879 34.1446 113.485 31.5837 117.509 29.6499C120.802 28.9704 124.095 28.8136 127.492 29.1795C133.188 29.8067 137.631 38.6394 133.554 43.1864C130.993 44.493 128.328 44.1271 125.715 43.3431C124.251 42.925 123.049 42.925 121.743 43.6045C120.541 43.6567 120.593 42.6114 120.279 41.8797C120.018 41.2003 119.704 40.4686 118.816 40.6254C117.98 40.7822 117.823 41.5662 117.718 42.2979C117.614 43.3954 117.875 44.3884 118.554 45.2247C119.495 46.3222 119.234 47.3675 118.502 48.4128C117.718 49.5103 116.882 50.6079 116.307 51.81C115.053 53.1166 114.791 54.9458 114.06 56.5138C113.589 57.5068 113.38 58.6043 112.649 59.4928C110.715 61.2175 109.46 63.4127 107.893 65.3987C107.318 66.1304 106.9 66.9144 106.116 67.437C103.555 68.0119 102.771 70.3116 101.569 72.1408C99.1644 75.8516 98.4327 80.0327 98.0668 84.3707C97.7532 88.186 97.4919 92.0013 98.0146 95.8688C98.1191 96.705 97.8055 97.5413 97.4397 98.3253C96.4467 100.05 94.3561 99.9977 92.9449 101.043C92.7359 101.043 92.5791 101.095 92.37 101.095C91.2202 100.938 90.2272 101.252 89.2864 101.827C81.1854 103.499 74.3911 100.625 68.0671 95.8166C64.7745 93.2556 61.6908 90.4856 59.1299 87.1929Z" fill="#3E4E50"/>
<path d="M262.02 216.286C262.543 220.415 260.87 224.021 259.355 227.627C259.355 229.456 258.519 230.92 257.316 232.226C254.599 235.258 251.933 238.394 247.491 238.916C239.965 242.157 232.491 242.157 224.965 238.916C219.529 238.028 216.446 234.108 213.623 230.031C211.01 226.268 209.233 222.087 209.39 217.331C209.442 216.338 208.815 215.45 208.867 214.457C209.076 212.68 209.285 210.85 209.651 209.126C209.808 208.446 209.913 207.714 210.54 207.244C212.735 206.512 214.878 205.572 217.23 205.363C217.961 205.31 218.641 205.154 219.268 205.728C220 206.512 219.634 207.296 219.32 208.08C217.543 212.732 217.961 217.383 219.268 222.035C219.425 222.505 219.738 222.819 220 223.132C222.926 228.568 227.369 231.913 233.536 232.958C241.167 234.213 249.111 230.084 252.456 223.08C252.822 222.296 253.188 221.565 253.553 220.781C254.181 218.429 254.076 215.92 255.017 213.568C257.003 212.941 260.505 214.195 262.02 216.286Z" fill="#2A2A2A"/>
<path d="M68.5378 238.969C61.3253 234.892 56.4648 229.038 54.6355 220.885C54.2174 219.108 53.8516 217.331 54.0606 215.502C56.3603 216.809 58.9735 215.293 61.3254 216.181C62.2138 216.756 62.2661 217.697 62.4229 218.586C63.6773 224.7 67.0744 229.247 72.8235 231.913C78.6249 235.101 87.3008 233.794 92.6317 228.986C93.8338 227.889 94.8791 226.687 95.8198 225.328C96.2902 224.596 96.7083 223.707 97.8059 223.603C99.6874 223.917 101.36 224.805 103.085 225.589C103.659 225.85 104.025 226.268 104.182 226.896C102.092 231.652 98.5898 235.153 94.2519 237.871C93.6247 238.237 93.0498 238.603 92.4226 239.021C84.4262 242.627 76.482 242.627 68.5378 238.969Z" fill="#2A2A2A"/>
<path d="M214.303 193.237C214.46 193.133 214.564 192.976 214.721 192.871C214.93 192.662 215.244 192.349 215.557 192.506C217.334 193.29 218.745 192.192 220.313 191.774C221.202 191.199 222.352 192.035 223.188 191.199C223.345 191.095 223.501 190.99 223.658 190.938C225.017 190.363 226.376 190.154 227.683 191.147C227.839 191.147 227.996 191.199 228.205 191.199C228.937 190.833 229.669 190.99 230.453 190.99C231.498 189.474 232.543 190.52 233.589 190.99C234.738 190.154 235.888 189.37 237.456 190.258C238.188 190.676 239.076 190.049 239.86 189.84C239.965 189.683 240.122 189.579 240.226 189.422C240.905 189.213 241.637 189.37 242.317 189.422C244.303 190.311 246.446 189.945 248.536 190.206C249.529 190.049 250.574 189.788 251.567 190.206C252.717 189.527 253.606 191.042 254.703 190.572C256.48 191.042 258.048 191.722 258.362 193.917C258.414 194.387 259.198 194.23 259.512 194.544C259.982 195.119 260.348 195.746 259.825 196.478C258.466 196.739 257.107 197 255.749 197.262C254.965 198.516 253.606 198.359 252.456 198.516C250.94 198.725 249.425 199.039 247.909 198.882C247.23 198.777 246.759 199.3 246.184 199.457C243.31 199.457 240.435 200.032 237.613 200.293C235.418 200.659 233.17 200.816 230.923 201.025C228.153 201.286 225.383 201.756 222.613 202.279C220.522 201.6 218.589 202.749 216.55 202.749C215.453 202.749 214.407 203.115 213.31 203.115C211.951 203.011 210.644 203.429 209.286 203.533C208.554 203.586 207.874 203.69 207.247 203.22C206.62 202.593 206.672 202.018 207.09 201.182C207.874 199.614 208.711 198.098 209.39 196.478C210.174 194.074 212.16 193.551 214.303 193.237Z" fill="#FF6F44"/>
<path d="M58.712 188.952C57.8757 187.07 57.719 185.032 57.144 183.046C57.3008 180.014 59.0256 177.715 60.9593 175.572C62.5273 173.847 64.1998 172.227 65.8199 170.555C71.3077 166.164 76.9 161.879 83.0149 158.325C83.4853 157.07 84.3738 156.286 85.5236 155.712C87.5619 154.666 89.4957 153.516 91.6908 152.732C92.6316 152.419 93.7291 152.001 94.4085 153.255C94.5131 153.673 94.3563 153.987 93.9904 154.248C86.9347 160.206 82.1787 167.837 78.5724 176.199C78.2066 177.088 77.893 178.028 77.893 179.021C77.6839 179.544 77.2136 179.753 76.7955 180.067C73.6073 180.851 70.3669 181.06 67.1266 181.53C63.5726 182.053 61.1161 183.83 59.9663 187.279C59.7573 188.115 59.6005 188.847 58.712 188.952Z" fill="#FA542F"/>
<path d="M80.663 111.757C77.2658 112.071 73.8164 112.646 70.3669 112.489C66.7084 112.332 63.5203 111.182 61.0639 108.36C60.7503 107.524 59.9141 106.949 59.8618 105.956C61.1684 104.074 62.266 103.708 64.252 104.388C64.8792 104.597 65.5586 104.858 66.1335 104.649C68.4332 104.022 70.8896 104.283 73.0847 103.186C73.6073 102.925 74.2345 102.559 74.7572 102.872C75.8547 103.499 76.9522 103.238 77.9453 102.768C80.8721 101.461 84.0602 102.715 86.987 101.931C88.8163 101.566 90.75 101.461 92.4225 100.468C94.7221 100.52 96.6037 99.0569 98.7988 98.6388C99.3214 98.5343 99.7918 98.4298 100.21 98.7434C101.151 100.05 101.517 101.304 100.21 102.611C98.2239 105.224 95.4016 106.74 92.527 108.151C89.7048 109.458 87.0393 111.078 83.9557 111.757C82.8581 112.071 81.7606 112.541 80.663 111.757Z" fill="#273133"/>
<path d="M86.9349 102.454C84.792 102.611 82.7537 103.604 80.4541 103.186C79.6179 103.029 78.259 103.97 77.1614 104.44C76.7433 104.649 76.2207 104.911 75.8548 104.597C74.496 103.447 73.3984 104.597 72.1441 104.701C69.2695 104.911 66.395 106.897 63.4159 105.172C62.7887 104.806 62.1093 105.067 61.5867 105.433C61.0118 105.799 60.4891 106.113 59.8097 105.956C57.4578 101.409 57.7714 96.5482 58.1372 91.6876C58.2418 90.172 58.1895 88.5518 59.1302 87.1929C60.1755 86.8793 60.6459 87.7678 61.2208 88.3427C64.6703 91.949 68.381 95.1371 72.6667 97.698C77.3705 100.52 82.3879 102.088 87.9279 101.304C88.3983 101.252 88.8164 101.304 89.2868 101.252C88.9209 102.454 87.5098 101.67 86.9349 102.454Z" fill="#384749"/>
<path d="M245.976 198.307C249.164 197.575 252.404 197.366 255.644 197.157C258.571 200.711 260.766 204.631 261.759 209.126C262.282 211.53 262.021 213.882 262.021 216.286C259.721 215.815 257.787 214.3 255.435 213.934C254.338 213.777 254.233 212.889 254.076 212.052C253.293 207.192 250.836 203.377 247.073 200.293C246.498 199.823 245.557 199.404 245.976 198.307Z" fill="#131418"/>
<path d="M247.491 238.969C252.508 236.303 256.48 232.54 259.355 227.68C260.557 229.927 262.386 231.704 264.215 233.481C265.574 234.84 266.881 236.146 268.24 237.505C268.553 237.871 269.233 238.132 268.919 238.76C268.71 239.178 268.083 239.021 267.665 239.021C260.923 238.969 254.181 238.969 247.491 238.969Z" fill="#F4F4F4"/>
<path d="M135.907 44.5975C136.22 45.9564 135.698 47.1585 135.332 48.3606C133.137 55.2595 129.426 61.4266 125.715 67.5938C124.147 68.4823 123.415 67.2803 122.527 66.3918C122.788 64.9284 122.318 63.465 122.109 62.1061C121.795 60.0155 122.631 58.6566 123.834 57.2978C127.022 57.0364 128.694 54.8936 130.053 52.3327C131.203 50.1898 132.562 48.256 133.555 46.0087C134.234 45.3292 134.548 44.1794 135.907 44.5975Z" fill="#273133"/>
<path d="M225.645 178.708C222.404 179.335 219.268 180.38 215.819 181.635C218.066 176.251 220.261 170.816 222.509 165.433C222.718 170.084 224.024 174.422 225.645 178.708Z" fill="#F3F3F3"/>
<path d="M133.085 74.3359C133.712 75.0676 134.234 75.9038 134.966 76.531C136.534 77.8899 136.482 79.0397 134.757 80.1373C134.339 81.6007 133.659 82.8027 131.987 83.0641C130.21 82.7505 129.687 81.078 128.694 79.9805C128.538 79.7191 128.329 79.4578 128.276 79.1442C129.008 76.3742 126.708 74.545 126.133 72.1408C125.82 70.991 124.931 69.5276 126.917 68.7959C129.217 70.3116 130.994 72.5067 133.085 74.3359Z" fill="#F0502E"/>
<path d="M133.136 42.8728C133.973 40.5209 134.704 38.2735 133.607 35.7126C131.934 31.7927 129.373 29.7544 125.14 29.6499C122.579 29.5976 120.07 29.6499 117.509 29.6499C121.534 27.7684 125.61 27.5593 129.791 29.0227C133.189 30.2248 134.966 32.838 135.75 36.1829C136.377 38.7962 136.847 41.5139 135.959 44.1794C134.443 45.0156 134.129 43.2909 133.136 42.8728Z" fill="#506568"/>
<path d="M126.813 68.8481C126.133 70.6774 127.022 72.4021 127.753 73.8132C128.694 75.4857 128.799 77.2627 129.217 78.9874C128.119 79.51 127.649 78.6738 127.178 78.0466C125.558 75.8515 124.252 73.4474 122.997 71.0432C122.056 69.2662 121.063 67.5415 119.548 66.1826C118.973 65.66 118.346 65.0851 119.025 64.1966C121.063 63.5694 122.109 64.0398 122.945 66.0781C123.833 66.6007 124.722 67.1234 125.61 67.646C125.976 68.0641 126.656 68.2209 126.813 68.8481Z" fill="#AF311B"/>
<path d="M133.137 42.8728C134.652 42.1411 134.809 44.1794 135.959 44.1794C135.959 44.2839 135.907 44.4407 135.907 44.5453C134.914 44.8588 135.018 45.9564 134.391 46.5313C132.875 45.5383 131.151 45.3292 129.426 45.486C126.97 45.6951 124.618 44.5975 122.109 44.8588C121.168 44.9634 120.802 44.1794 121.482 43.2909C123.102 42.0888 124.67 42.0366 126.551 42.8205C128.642 43.7613 130.942 43.7613 133.137 42.8728Z" fill="#E97C6F"/>
<path d="M70.4717 64.6148C72.9281 63.8308 75.5413 63.4127 77.8932 62.2629C80.2974 61.1131 82.1789 59.3883 83.5378 56.5138C83.4332 60.9563 75.8549 65.451 70.4717 64.6148Z" fill="#A9B0B1"/>
<path d="M259.773 196.373C259.511 196.007 259.25 195.641 258.989 195.276C258.309 194.439 256.898 194.283 257.16 192.506C257.316 191.46 255.435 191.251 254.651 190.467C255.853 190.833 257.003 190.52 258.309 189.84C257.682 191.774 257.839 192.976 259.93 193.446C261.341 193.76 260.714 195.276 260.923 196.321C260.504 196.321 260.139 196.373 259.773 196.373Z" fill="#FF6F44"/>
<path d="M101.412 239.335C103.241 238.446 104.548 236.983 106.011 235.624C106.011 237.296 104.548 237.923 103.764 238.969C101.726 240.014 99.8965 241.53 97.1265 242C98.4853 240.484 100.21 240.275 101.412 239.335Z" fill="#9B9B9B"/>
<path d="M208.449 238.132C208.972 238.551 209.442 238.969 209.965 239.387C210.488 240.223 211.638 240.38 212.108 241.53C210.226 241.268 209.338 239.805 208.084 238.916C208.084 238.812 208.031 238.655 208.031 238.551C208.031 238.341 208.188 238.185 208.449 238.132Z" fill="#9D9D9D"/>
<path d="M131.987 82.4892C132.927 81.7053 133.816 80.9213 134.757 80.1373C135.906 82.3847 138.102 83.7436 139.67 85.6251C141.969 88.4474 144.687 89.963 148.502 90.1721C157.335 90.747 166.011 92.8898 174.739 94.3532C177.091 94.7191 179.234 94.51 181.376 93.5693C186.76 91.2174 190.627 93.0989 192.404 98.848C192.509 99.2661 192.247 99.4229 191.882 99.4229C190.47 98.7434 189.477 97.4368 188.119 96.6529C186.551 95.7644 184.826 95.1895 183.31 96.1302C177.561 99.6319 171.76 97.4368 165.958 96.4961C158.432 95.294 150.959 93.6215 143.328 93.0989C141.865 92.9944 140.558 92.4195 139.46 91.3742C137.161 89.1268 134.913 86.8794 132.666 84.5798C132.091 84.0572 131.412 83.4822 131.987 82.4892Z" fill="#E97C6F"/>
<path d="M191.934 99.3183C192.091 99.1615 192.248 99.057 192.352 98.9002C192.77 100.573 193.241 102.297 191.046 103.134C190.523 102.925 190.314 102.454 190.105 101.984C189.791 101.252 189.321 100.625 188.38 100.625C187.387 100.625 186.865 101.304 186.603 102.141C186.394 102.768 186.081 103.29 185.401 103.552C184.774 103.709 184.094 103.761 183.467 103.552C178.032 102.088 172.44 102.506 166.9 102.35C159.164 102.141 151.377 101.513 143.642 101.932C137.266 102.245 132.614 99.5796 128.433 95.3462C128.067 94.9804 127.754 94.5623 127.388 94.1964C124.722 92.1581 122.109 90.0675 120.489 86.9839C120.959 85.4683 121.743 84.3185 123.572 84.423C124.879 85.1024 125.715 86.3045 126.656 87.402C128.747 89.9107 131.255 92.0536 133.398 94.4577C136.377 97.8549 140.349 98.1685 144.321 98.2208C149.548 98.273 154.774 98.5866 159.948 98.7434C167.265 99.0047 174.53 99.1615 181.847 99.6319C182.997 99.6842 184.042 99.4228 184.983 98.7434C187.805 96.6528 188.38 96.6528 191.15 98.6911C191.411 98.9525 191.673 99.1615 191.934 99.3183Z" fill="#EE897D"/>
<path d="M185.662 102.872C185.61 101.2 186.185 99.8932 187.91 99.4228C189.216 99.1092 190.157 99.7886 190.837 100.886C191.307 101.618 191.15 102.402 191.098 103.186C191.307 104.911 192.091 106.426 193.345 107.471C195.593 109.301 197.579 111.287 199.512 113.43C197.526 114.684 195.227 114.266 193.084 114.579C191.882 114.788 190.523 115.468 189.269 114.579C188.276 114.579 187.962 113.795 187.753 113.064C187.335 111.496 186.864 109.928 187.335 108.308C187.701 107.053 187.283 106.06 186.394 105.12C185.819 104.44 185.087 103.865 185.662 102.872Z" fill="#4B4B4B"/>
<path d="M76.7436 179.544C77.1617 179.439 77.5275 179.283 77.9457 179.178C84.1651 178.708 90.3846 178.133 96.6563 177.767C104.862 177.297 113.12 177.349 121.168 179.492C126.447 180.903 129.896 184.718 132.457 189.422C136.116 196.112 137.997 203.324 139.095 210.798C139.409 213.046 139.67 215.293 139.931 217.593C139.879 217.697 139.827 217.802 139.774 217.854C139.252 218.429 138.625 218.324 137.945 218.22C122.998 216.338 108.259 213.62 94.2521 207.871C89.3393 205.885 84.6878 203.429 80.977 199.457C75.6983 193.812 74.8621 187.331 76.6913 180.223C76.6913 179.91 76.7436 179.701 76.7436 179.544Z" fill="#FB5D2E"/>
<path d="M185.662 102.872C186.185 103.552 186.707 104.127 187.439 104.649C188.589 105.433 189.112 106.426 188.484 107.942C187.596 110.189 188.537 112.384 189.216 114.527C191.882 124.823 194.547 135.067 197.16 145.415C198.153 149.388 198.833 153.464 199.878 157.436C201.289 162.976 199.93 168.15 198.362 173.377C198.153 174.109 197.84 174.84 197.787 175.624C196.22 175.52 196.638 174.37 196.69 173.481C197.16 166.269 196.063 159.213 193.763 152.367C193.24 150.746 192.404 149.283 191.568 147.82C189.268 144.004 185.401 142.227 180.958 142.802C178.554 143.116 176.202 143.691 173.903 144.266C173.014 144.475 171.969 144.945 171.185 143.952C170.349 142.698 170.662 141.287 170.662 139.98C170.715 137.053 169.565 135.015 166.847 133.813C164.181 132.611 161.516 131.461 158.798 130.363C157.074 129.214 154.931 128.9 153.258 127.75C151.638 127.071 149.913 126.809 148.345 125.973C147.77 125.66 147.091 125.555 146.725 124.98C143.067 116.357 139.565 107.628 132.3 101.095C130.994 99.8932 129.635 98.7957 128.171 97.8027C127.335 97.2278 126.447 96.6529 125.872 95.7121C125.819 94.6145 125.976 93.6738 127.335 93.4647C129.321 94.301 130.523 96.0779 132.143 97.3845C135.07 99.7364 138.258 100.886 142.021 100.939C150.488 100.991 158.955 101.043 167.422 101.409C173.485 101.618 179.652 101.513 185.662 102.872Z" fill="#F4F4F4"/>
<path d="M214.303 193.237C213.99 194.126 213.206 194.283 212.422 194.387C211.272 194.596 210.331 195.171 209.861 196.269C208.972 198.359 208.136 200.502 207.248 202.593C207.875 203.377 207.561 204.213 207.248 204.997C205.471 209.126 203.798 213.255 201.76 217.279C201.08 218.638 200.035 219.526 198.52 219.892C193.554 221.094 188.537 221.617 183.52 222.244C182.631 222.349 181.847 221.93 180.959 221.774C174.791 222.349 168.677 222.871 162.509 223.603C153.572 224.648 144.583 224.648 135.593 224.491C135.175 224.491 134.705 224.282 134.287 224.178C134.548 223.289 135.332 223.289 136.011 223.237C139.043 222.871 139.199 222.714 138.99 219.788C138.938 218.899 139.043 218.115 139.774 217.54H139.827C147.98 218.638 156.133 219.108 164.339 219.422C172.753 219.735 181.115 219.265 189.373 217.436C194.077 216.39 196.795 212.732 199.669 209.439C203.276 205.258 206.516 200.763 209.077 195.798C209.6 194.857 210.331 194.178 211.115 193.446C212.161 192.401 213.154 191.983 214.303 193.237Z" fill="#FF6F44"/>
<path d="M144.164 154.509C143.642 156.391 142.492 157.907 141.499 159.579C141.133 160.206 140.558 160.415 139.879 160.311C134.182 159.422 128.433 158.534 122.736 157.645C114.374 156.286 106.011 155.084 97.806 153.046C96.6039 152.68 96.1858 151.844 96.3426 150.642C100.628 146.304 105.698 146.043 111.342 147.192C121.325 149.231 131.307 151.165 141.238 153.151C142.335 153.36 143.59 153.255 144.164 154.509Z" fill="#2B2A2A"/>
<path d="M207.195 126.287C208.606 122.315 211.638 120.224 215.558 119.179C216.707 118.865 217.021 119.126 217.021 120.329C216.969 126.705 216.969 133.081 217.021 139.405C217.021 140.503 216.707 140.816 215.662 140.398C214.93 140.084 214.199 139.823 213.467 139.562C211.376 135.119 209.286 130.729 207.195 126.287Z" fill="#131418"/>
<path d="M153.886 208.864C153.52 207.453 153.467 205.99 153.572 204.526C154.408 203.377 155.715 203.899 156.76 203.638C158.38 203.115 160.053 203.481 161.673 203.115C162.091 202.958 162.561 203.011 162.98 202.958C164.443 202.488 165.697 204.004 167.213 203.429C167.892 203.429 168.624 203.429 169.251 203.795C171.29 204.108 173.38 204.474 175.471 204.631C176.725 205.049 178.032 205.101 179.182 205.781C180.331 206.408 180.645 207.087 179.809 208.133C179.234 209.126 178.241 208.917 177.352 208.917C169.565 208.864 161.725 208.864 153.886 208.864Z" fill="#CCCCCC"/>
<path d="M179.809 208.08C179.182 205.624 177.091 205.415 175.105 204.945C175.21 203.952 175.837 204.422 176.307 204.526C178.084 204.474 179.704 204.945 181.377 205.519C182.788 206.042 183.833 206.878 184.147 208.446C182.631 209.021 181.168 209.23 179.809 208.08Z" fill="#ACACAC"/>
<path d="M242.108 190.101C240.853 191.304 240.592 190.101 240.122 189.318C240.906 188.22 241.899 187.645 243.31 188.115C243.885 188.324 244.459 188.22 244.982 187.854C245.871 187.279 246.446 187.645 246.811 188.534C246.341 189.945 245.557 190.624 243.937 190.154C243.414 190.049 242.735 189.527 242.108 190.101Z" fill="#FF6F44"/>
<path d="M239.756 189.683C237.927 191.565 235.627 190.676 233.484 190.833C233.484 189.527 234.164 188.847 235.418 188.952C236.882 189.161 238.397 189.056 239.756 189.683Z" fill="#FF6F44"/>
<path d="M220.941 192.819C219.686 193.237 218.118 192.401 217.178 194.021C216.916 194.492 216.551 193.917 216.341 193.655C215.923 193.081 215.348 192.871 214.669 192.819C215.61 191.722 216.76 191.042 218.275 191.565C218.641 191.669 219.007 191.774 219.373 191.669C220.366 191.408 220.575 192.244 220.941 192.819Z" fill="#FF6F44"/>
<path d="M227.996 192.035C227.892 192.035 227.735 192.035 227.631 192.035C227.526 192.087 227.369 192.14 227.265 192.087C225.697 190.363 225.697 190.363 223.711 191.669C223.606 191.669 223.449 191.669 223.345 191.669C222.561 191.669 221.672 191.722 221.777 190.52C223.92 189.579 226.115 189.213 228.415 189.736C228.989 190.624 228.728 191.356 227.996 192.035Z" fill="#FF6F44"/>
<path d="M242.107 190.102C242.473 189.631 242.944 189.527 243.466 189.683C244.877 190.206 245.87 189.474 246.811 188.534C246.811 189.631 247.804 189.37 248.379 189.683C248.64 189.945 248.588 190.206 248.379 190.467C246.236 190.99 244.146 190.833 242.107 190.102Z" fill="#FF6F44"/>
<path d="M221.724 190.467C222.247 190.833 222.77 191.251 223.292 191.617C223.083 193.185 221.411 191.722 220.94 192.767C220.366 192.453 219.738 192.192 219.373 191.565C219.843 190.624 220.993 190.938 221.724 190.467Z" fill="#FF6F44"/>
<path d="M248.379 190.467C248.379 190.206 248.379 189.945 248.379 189.683C249.529 188.847 250.679 188.377 251.515 190.049C250.47 190.363 249.477 190.938 248.379 190.467Z" fill="#FF6F44"/>
<path d="M233.484 190.885C233.432 190.938 233.38 191.042 233.38 191.042C232.386 190.676 231.341 191.356 230.348 190.885C231.55 189.004 231.968 189.004 233.484 190.885Z" fill="#FF6F44"/>
<path d="M227.996 192.035C228.049 191.251 227.683 190.363 228.414 189.683C229.251 189.788 229.826 190.311 230.348 190.833C229.616 191.356 228.937 191.983 227.996 192.035Z" fill="#FF6F44"/>
<path d="M254.651 190.467C253.502 191.042 252.509 190.729 251.516 190.101C252.77 188.481 253.606 190.311 254.651 190.467Z" fill="#FF6F44"/>
<path d="M123.416 84.8933C122.475 85.5205 121.743 86.2522 121.064 87.1406C121.064 88.4473 120.384 89.2835 119.182 89.5448C118.032 89.8584 117.405 88.9699 116.83 88.1337C114.792 85.1546 112.858 82.1755 112.597 79.0397C113.433 83.0118 115.106 87.3497 117.301 91.5309C119.182 95.0848 121.639 98.3252 123.572 101.879C123.938 102.506 124.827 102.611 124.931 103.499C125.14 107.001 125.454 110.555 124.722 114.005C122.318 115.52 120.593 113.952 118.45 112.437C120.646 114.005 122.475 115.363 124.513 116.356C126.133 117.036 127.283 118.447 128.642 119.44C129.217 119.858 129.374 120.485 129.008 121.165C128.537 121.792 127.858 121.74 127.231 121.635C121.116 120.538 114.949 119.597 108.729 119.022C108.154 118.656 108.259 118.133 108.259 117.506C108.363 114.998 108.207 112.489 106.064 110.66C105.646 110.398 104.914 110.137 105.018 109.614C105.646 107.315 103.503 106.06 103.085 104.179C102.667 103.081 102.458 101.984 102.248 100.834C102.51 97.6458 101.308 94.8758 99.6875 92.2626C99.4262 91.8444 99.0081 91.4786 98.9036 90.956C97.2834 81.6529 98.9036 73.2383 105.698 66.2349C107.214 64.2489 108.677 62.3151 110.193 60.3813C110.663 59.7541 111.342 59.336 111.917 58.7611C114.635 59.9632 117.092 61.5311 119.13 63.7262C119.182 63.9353 119.13 64.0921 119.025 64.2489C122.893 66.9143 124.147 71.4613 126.604 75.1721C127.44 76.4265 128.067 77.7853 129.217 78.7784C129.217 78.9874 129.217 79.2487 129.269 79.4578C128.381 81.8097 126.342 83.1686 124.565 84.6842C124.252 85.1546 123.781 84.9978 123.416 84.8933Z" fill="#F0502E"/>
<path d="M121.429 43.2909C121.429 43.6045 121.482 44.1272 121.847 44.0226C124.722 43.2387 127.44 44.9634 130.262 44.5453C130.785 44.493 131.36 44.6498 131.778 44.493C133.92 43.6568 134.234 44.9634 134.286 46.5313C132.718 49.9285 130.732 53.1167 128.537 56.2002C127.387 57.8204 125.767 57.925 124.043 57.925C123.363 58.2386 122.684 58.5521 121.952 58.2386C119.966 57.6114 118.137 56.6706 116.673 55.155C115.628 54.0574 114.687 52.9076 115.419 51.2351C115.785 50.6602 116.151 49.9808 116.569 49.4581C117.771 47.9947 118.659 46.6881 117.091 44.8066C116.255 43.7613 116.464 42.1934 116.882 40.8868C117.196 39.946 117.771 39.2666 118.816 39.2666C119.914 39.2666 120.645 39.8415 120.907 40.9391C121.22 41.6185 121.325 42.4547 121.429 43.2909Z" fill="#F29F80"/>
<path d="M105.75 66.4962C104.443 68.7958 103.085 71.0955 101.883 73.4474C98.9557 79.0919 99.0603 85.0501 99.8442 91.1127C100.419 92.8375 101.046 94.6144 100.471 96.496C100.419 96.8618 100.367 97.2277 100.158 97.5935C99.1125 98.3252 98.1718 99.7886 96.7084 98.2207C97.0742 97.4367 97.1265 96.6005 97.0219 95.7642C96.238 89.7538 96.7606 83.848 98.015 77.9944C98.9557 73.4996 101.883 70.1547 104.862 66.8621C105.123 66.4962 105.384 66.3394 105.75 66.4962Z" fill="#384749"/>
<path d="M115.524 51.1829C116.151 53.8483 118.189 55.2072 120.28 56.5138C120.855 56.8797 121.534 57.141 122.214 57.4546C122.841 59.2838 121.325 60.4859 120.802 62.0016C120.489 62.8901 120.227 63.8831 119.025 64.0399C116.412 62.7333 113.694 61.5835 112.022 58.9702C113.172 56.4093 113.903 53.587 115.524 51.1829Z" fill="#E97C6F"/>
<path d="M96.7081 98.1685C97.8579 98.273 98.7986 97.6458 99.8439 97.3845C100.367 97.9072 100.367 98.4298 99.8439 98.9525C97.3875 99.6842 95.2447 101.722 92.3701 100.52C93.6767 99.4228 95.5582 99.3706 96.7081 98.1685Z" fill="#384749"/>
<path d="M86.9346 102.454C87.4572 101.566 88.5548 101.775 89.2865 101.304C89.6523 98.4298 91.3248 100.52 92.4223 100.52C92.2655 101.566 91.5338 101.827 90.5931 101.932C89.3387 102.036 88.1367 102.245 86.9346 102.454Z" fill="#384749"/>
<path d="M139.826 217.488C139.983 219.108 140.088 220.676 140.244 222.296C140.349 223.603 139.722 224.178 138.415 224.126C137.056 224.073 135.697 224.126 134.338 224.178C127.544 224.126 120.75 223.603 114.008 222.923C112.283 222.505 111.081 220.99 109.252 220.781C108.311 220.572 107.579 220.153 107.475 219.108C106.9 218.167 106.691 216.704 104.966 217.383C104.809 217.488 104.652 217.54 104.443 217.593C104.182 217.593 103.868 217.645 103.712 217.436C102.771 215.816 101.098 215.241 99.5826 214.404C99.3736 214.091 99.06 213.62 98.7987 213.62C96.8649 213.568 95.6106 211.948 93.7813 211.634C93.0496 210.641 92.3179 209.596 90.8545 209.91C89.2866 210.014 87.8754 209.857 86.7779 208.551C85.8894 207.14 84.426 207.14 83.0148 207.087C82.858 207.035 82.649 206.983 82.5445 206.878C80.2448 206.147 77.8929 205.363 75.9069 204.213C73.8686 203.063 71.3599 203.481 69.5306 201.756C68.7467 201.025 67.1787 201.129 65.9244 201.6C65.245 201.913 64.5133 201.913 63.9906 201.338C63.5203 200.868 62.9453 200.659 62.3182 200.502C60.7502 199.823 61.0638 198.516 61.1683 197.262C60.3321 194.492 59.5481 191.722 58.7119 188.952C59.6527 183.725 61.9523 181.478 67.2833 180.694C70.4191 180.224 73.555 179.649 76.7431 179.544C77.8929 180.224 77.2135 181.164 77.0567 182C76.4818 185.398 76.5341 188.743 77.5794 192.035C79.3564 197.784 83.642 201.286 88.6594 204.056C95.9241 208.08 103.764 210.38 111.76 212.418C121.011 214.718 130.366 216.181 139.826 217.488Z" fill="#ED3D16"/>
<path d="M87.3007 208.08C88.4505 208.446 89.6526 208.864 90.8024 209.23C92.0567 209.021 91.7431 210.275 92.318 210.746C92.3703 210.798 92.3703 210.903 92.4226 210.903C95.1403 212.209 97.9626 213.411 100.68 214.718C101.882 215.084 103.084 215.502 103.555 216.913C103.659 217.279 104.182 217.383 104.548 217.07C106.064 217.279 107.527 217.645 108.468 219.004C108.206 220.049 109.252 219.788 109.618 220.153C109.722 220.833 110.349 220.937 110.82 221.251C111.29 221.565 111.917 222.139 110.767 222.505C109.095 222.871 107.318 221.617 105.75 222.923C103.241 223.08 100.785 222.714 98.3284 222.349C92.5271 221.774 86.778 221.042 81.0812 219.997C80.0359 219.526 78.9384 219.474 77.8408 219.317C73.3461 218.69 70.2625 216.181 67.8061 212.523C66.1336 210.014 64.827 207.349 63.3636 204.735C63.05 203.742 62.6319 202.854 62.2138 201.913C61.9002 201.182 61.6911 200.45 62.5273 199.875C63.6772 199.823 64.5134 201.077 65.7677 200.607C68.0151 201.129 70.2102 201.652 72.2485 202.854C72.8757 203.22 73.3461 203.429 74.0255 203.063C74.3914 202.854 74.9663 202.854 75.0708 203.168C75.5934 204.526 76.9 204.579 77.9453 204.735C79.7746 205.049 81.238 206.251 83.015 206.512C83.9035 207.244 85.0533 206.356 86.0463 207.035C86.5167 207.349 86.9348 207.662 87.3007 208.08Z" fill="#AF311B"/>
<path d="M98.6944 221.774C100.785 221.512 102.771 222.035 104.809 222.192C105.332 222.244 105.646 222.505 105.802 222.976C105.332 224.282 105.018 225.693 104.182 226.843C101.987 226.112 99.7397 225.432 97.8582 224.021C97.0742 222.871 97.4401 222.139 98.6944 221.774Z" fill="#131418"/>
<path d="M204.059 228.411C204.164 226.896 203.85 225.38 204.373 223.655C205.157 224.491 204.738 225.38 204.948 226.112C204.738 230.502 205.888 234.526 208.449 238.132C208.293 238.289 208.136 238.446 208.031 238.603C205.366 235.728 204.634 232.122 204.059 228.411Z" fill="#969696"/>
<path d="M62.5276 199.927C63.1025 201.495 63.6774 203.115 64.3046 204.683C64.4614 205.206 64.4614 205.729 64.2523 206.199C63.1025 209.283 62.214 212.418 61.8481 215.711C61.7959 216.181 61.5345 216.547 61.0642 216.704C59.7053 216.6 58.3464 216.809 57.0921 217.279C55.3151 217.906 54.3221 217.488 54.0608 215.554C53.9562 208.499 56.4649 202.488 61.1164 197.262C61.6391 198.15 62.0572 199.039 62.5276 199.927Z" fill="#131418"/>
<path d="M230.714 199.927C232.91 199.666 235.157 199.405 237.352 199.143C242.004 206.356 247.491 212.993 252.927 219.683C253.397 220.258 253.659 220.937 254.181 221.408C251.882 228.568 245.035 233.794 237.352 234.265C229.774 234.735 222.248 230.345 219.321 223.864C218.955 222.662 219.373 221.826 220.105 220.728C221.673 218.481 222.823 215.972 222.718 213.15C222.666 211.216 222.979 210.798 224.913 210.537C225.174 210.485 225.488 210.537 225.697 210.432C226.324 210.066 227.526 210.38 227.683 209.492C227.788 208.551 226.742 208.446 226.063 208.08C224.547 207.296 223.816 204.945 224.652 203.481C225.331 202.331 226.376 201.809 227.631 202.488C228.467 202.958 229.251 203.272 230.244 203.533C229.878 202.279 228.624 200.868 230.714 199.927Z" fill="#F4F4F4"/>
<path d="M254.181 221.408C253.083 221.721 252.613 220.833 252.143 220.206C247.178 214.039 242.003 208.028 237.718 201.338C237.3 200.659 236.463 200.032 237.352 199.143C240.226 198.882 243.049 198.255 245.975 198.307C251.725 201.966 254.704 207.244 255.435 213.934C255.331 216.495 255.226 219.004 254.181 221.408Z" fill="#FEFEFE"/>
<path d="M230.714 199.927C229.982 201.443 230.818 202.54 231.655 203.69C232.282 204.579 232.491 205.363 231.446 205.99C230.348 206.669 230.348 205.519 229.825 205.049C228.885 204.213 227.683 203.638 226.428 203.272C225.801 203.063 225.331 203.899 225.278 204.579C225.174 205.781 225.383 206.878 226.742 207.244C227.944 207.61 228.832 208.289 229.303 209.439C229.616 210.275 229.355 211.373 228.467 211.164C227.003 210.798 225.906 212.052 224.494 211.582C223.763 211.321 223.606 211.843 223.658 212.627C223.972 216.181 222.613 219.16 220.418 221.826C219.895 222.453 219.477 223.08 219.32 223.812C216.498 218.742 216.446 213.464 218.275 208.08C218.484 207.401 218.798 206.774 219.007 206.094C218.589 203.899 219.947 202.07 222.508 201.391C225.122 200.032 227.996 200.398 230.714 199.927Z" fill="#F3F3F3"/>
<path d="M222.561 201.443C221.097 202.802 220.156 204.526 219.059 206.147C216.341 206.251 213.832 207.453 211.167 207.662C211.428 205.729 212.474 204.056 213.205 202.279C216.237 201.547 219.32 200.607 222.561 201.443Z" fill="#131418"/>
<path d="M61.0641 216.704C61.0118 212.418 61.9526 208.342 64.3045 204.683C65.8201 207.244 67.3358 209.805 68.9037 212.366C70.9943 215.659 73.8688 217.802 77.7887 218.376C78.8862 218.533 79.9315 218.847 81.0291 219.108C81.7608 219.788 81.5517 220.467 81.1336 221.199C79.1998 224.7 77.0047 228.098 74.8619 231.495C74.287 232.383 73.503 232.801 72.4054 232.697C66.2382 229.927 62.7365 225.066 61.4299 218.586C61.3254 217.958 61.2209 217.331 61.0641 216.704Z" fill="#F3F3F3"/>
<path d="M72.4575 232.749C75.2798 229.927 76.9 226.373 78.9383 223.028C79.7223 221.774 80.7153 220.624 81.0811 219.108C86.6734 219.892 92.2657 220.676 97.858 221.46C98.1716 221.512 98.4329 221.669 98.7465 221.826C98.4852 222.558 98.1716 223.342 97.9103 224.073C94.4608 229.979 89.4957 233.742 82.5446 234.526C78.9906 234.892 75.5934 234.369 72.4575 232.749Z" fill="#ECECEC"/>
<path d="M223.71 191.669C225.435 189.945 226.428 190.049 227.63 192.087C227.264 192.297 226.899 192.297 226.533 192.035C226.115 191.774 226.219 190.885 225.487 191.094C224.651 191.356 225.697 192.14 225.174 192.558C224.494 192.506 224.181 191.878 223.71 191.669Z" fill="#FF6F44"/>
<path d="M99.8439 98.9002C99.8439 98.3776 99.8439 97.8549 99.8439 97.3323C99.8439 97.071 99.8439 96.8096 99.8439 96.5483C100.785 95.8166 101.36 96.1825 101.725 97.2278C102.196 98.4821 102.718 99.6842 103.346 100.886C103.398 101.984 103.607 103.029 104.13 104.022C104.861 108.36 106.534 112.541 106.743 117.036C106.743 117.559 106.743 118.081 106.638 118.552C106.377 119.336 105.802 119.649 105.018 119.701C103.816 120.224 102.405 119.963 101.255 120.642C100.105 120.799 98.9554 121.583 97.8578 120.485C97.0216 120.485 96.2899 121.113 95.2969 120.747C96.3422 118.29 97.4397 115.886 98.485 113.482C99.7394 110.503 100.157 107.367 100.157 104.179C100.157 103.604 100.419 102.82 99.5303 102.559C100.419 101.409 100.053 100.155 99.8439 98.9002Z" fill="#AF311B"/>
<path d="M119.025 64.0399C119.809 61.688 120.75 59.4406 122.214 57.4546C122.841 57.6114 123.52 57.7682 124.147 57.8727C122.788 60.4337 123.572 63.3605 122.997 66.0259C121.795 65.242 120.541 64.6148 119.078 64.458C119.078 64.3535 119.025 64.1967 119.025 64.0399Z" fill="#384749"/>
<path d="M123.416 84.8933C125.402 83.1686 126.97 81.0257 129.269 79.6669C130.158 80.6076 131.098 81.5484 131.987 82.4891C134.757 85.3114 137.475 88.186 140.349 90.956C142.074 92.6284 144.53 92.3148 146.673 92.5239C154.461 93.2556 162.091 94.9281 169.826 96.2869C174.269 97.0709 178.502 97.7503 182.683 95.3462C185.244 93.8828 187.596 94.719 189.582 96.7573C190.366 97.5936 191.15 98.482 191.986 99.3183C191.307 99.0569 190.627 98.7956 190 98.5343C188.485 97.9071 187.021 97.9594 185.924 99.3183C184.774 100.782 183.31 101.043 181.533 100.729C177.98 100.102 174.373 100.468 170.819 100.207C165.175 99.7886 159.478 99.8932 153.833 99.6841C148.868 99.4751 143.955 99.1615 138.99 98.9001C137.109 98.7956 135.593 97.8026 134.339 96.6005C130.419 92.9943 126.499 89.2835 123.416 84.8933Z" fill="#F29F80"/>
<path d="M124.095 103.238C123.624 103.134 123.259 102.872 122.997 102.454C118.868 96.4437 114.844 90.3288 112.753 83.2208C112.126 81.078 111.604 78.8306 112.544 76.5833C113.381 80.085 114.792 83.3254 116.778 86.3044C118.607 89.0744 118.607 89.0744 121.063 87.1406C123.154 89.2312 125.506 91.0605 127.283 93.4646C127.022 94.2486 126.76 95.0326 126.499 95.8165C126.969 97.8026 125.454 102.297 124.095 103.238Z" fill="#AF311B"/>
<path d="M171.551 143.429C170.558 150.119 169.617 156.809 169.251 163.603C168.676 175.676 167.944 187.802 167.213 199.875C167.16 200.972 167.317 202.279 166.115 203.011C165.018 203.533 163.92 203.847 162.718 203.324C162.195 202.802 162.3 202.175 162.3 201.495C162.613 195.955 162.875 190.415 163.241 184.875C163.711 176.983 164.025 169.091 164.547 161.147C164.599 160.572 164.599 159.997 164.547 159.422C165.227 155.502 165.488 151.583 166.063 147.663C166.429 145.102 166.742 142.489 166.69 139.875C166.638 137.158 165.593 135.276 162.927 134.335C161.098 133.656 159.164 133.133 157.544 132.036C157.387 131.827 157.23 131.618 157.178 131.356C156.551 129.37 156.917 129.004 159.059 129.37C161.829 130.52 164.547 131.722 167.317 132.82C170.453 134.074 171.812 136.374 171.603 139.666C171.498 140.973 171.551 142.227 171.551 143.429Z" fill="#6E88A2"/>
<path d="M124.565 116.513C126.969 117.872 129.739 118.081 132.248 119.074C137.213 120.956 142.23 122.681 147.248 124.457C149.338 125.346 151.429 126.287 153.52 127.175C154.199 128.221 153.363 128.848 152.788 129.475C151.377 129.945 150.384 128.952 149.338 128.43C147.352 127.437 145.314 126.705 143.014 126.757C139.408 124.719 135.279 124.092 131.464 122.68C130.419 122.315 129.269 122.158 128.851 120.904C127.231 119.701 126.028 117.924 124.147 116.984C124.199 116.67 124.304 116.513 124.565 116.513Z" fill="#597086"/>
<path d="M152.788 128.952C152.422 128.064 153.363 127.75 153.572 127.123C155.453 127.75 157.282 128.482 159.059 129.423C156.969 129.37 157.492 130.363 158.275 131.409C156.446 132.245 153.676 130.99 152.788 128.952Z" fill="#6E88A2"/>
<path d="M176.307 204.526C175.889 204.683 175.523 204.788 175.105 204.945C173.066 204.683 171.028 204.422 168.99 204.108C168.938 204.108 168.885 204.056 168.833 204.004C168.99 203.899 169.094 203.847 169.251 203.742C171.603 203.795 174.007 203.951 176.307 204.526Z" fill="#B7B7B7"/>
<path d="M162.927 203.377C163.973 203.272 165.018 203.168 166.063 203.011C166.429 203.168 166.795 203.272 167.213 203.429C165.802 204.108 164.339 203.69 162.875 203.742C162.823 203.586 162.823 203.481 162.927 203.377Z" fill="#B7B7B7"/>
<path d="M151.534 178.446C150.959 171.704 150.384 164.962 150.959 158.272C151.586 150.799 150.802 151.635 144.635 150.642C144.321 150.59 144.008 150.642 143.642 150.642C142.649 152.001 141.342 151.217 140.245 151.008C136.063 150.328 131.935 149.492 127.753 148.865C119.287 147.506 110.767 146.356 102.248 144.893C101.046 144.684 99.5307 144.893 99.0603 143.22C99.0603 142.959 99.1125 142.698 99.1125 142.436C99.2693 142.07 99.4261 141.757 99.2171 141.339C98.0673 138.673 98.9035 136.112 99.5307 133.551C99.8965 131.983 99.6875 130.102 101.412 129.057C102.562 128.534 101.935 127.855 101.621 127.175C101.464 126.653 101.517 126.13 101.83 125.659C102.196 125.294 102.614 125.137 103.085 125.241C103.712 125.398 104.025 125.869 104.287 126.443C108.05 135.433 115.576 138.778 124.513 139.928C132.144 140.921 139.826 141.391 147.3 143.429C149.391 144.004 151.429 144.684 153.206 145.938C155.767 147.715 157.021 150.276 156.708 153.36C155.819 162.088 155.61 170.868 155.61 179.649C155.61 180.903 156.028 182.314 154.774 183.307C152.84 183.568 152.893 181.791 152.474 180.746C152.161 180.014 152.056 179.126 151.847 178.342C151.795 178.185 151.9 178.028 151.847 177.872C151.795 178.028 151.795 178.29 151.534 178.446Z" fill="#6E88A2"/>
<path d="M99.0602 143.116C106.848 144.841 114.844 145.625 122.736 146.983C129.739 148.185 136.691 149.335 143.694 150.537C145.575 151.635 144.948 153.046 144.217 154.457C138.258 153.725 132.457 152.21 126.551 151.112C120.541 150.015 114.478 148.865 108.468 147.663C104.496 146.879 100.942 147.663 98.0672 150.642C97.44 151.269 96.9174 151.583 96.447 150.537C96.2902 148.551 96.7083 146.67 97.3877 144.788C97.6491 144.057 98.1194 143.325 99.0602 143.116Z" fill="#131418"/>
<path d="M102.196 125.921C102.3 126.287 102.457 126.705 102.562 127.071C101.83 127.698 102.719 128.848 101.778 129.423C100.733 131.618 100.419 133.97 100.001 136.322C99.6872 138.151 98.9033 139.875 100.158 141.705C100.523 142.227 99.5304 142.28 99.0601 142.332C96.081 135.172 95.2448 127.907 97.7534 120.485C98.851 120.224 99.8963 119.963 100.994 119.701C103.346 120.747 103.868 123.569 102.196 125.921Z" fill="#597086"/>
<path d="M151.533 178.446C151.533 177.349 151.533 176.251 151.533 175.206C151.742 175.154 151.951 175.154 152.108 175.102C151.324 178.237 154.355 180.171 154.303 183.098C155.296 183.725 155.401 184.666 155.348 185.659C155.296 186.182 155.453 186.704 155.453 187.227C155.192 188.795 155.192 190.31 155.714 191.826C156.342 193.708 155.923 195.694 156.289 197.628C156.603 199.352 156.812 201.077 157.335 202.749C157.544 203.377 157.596 204.004 157.021 204.526C155.871 204.526 154.721 204.526 153.519 204.526C152.422 195.851 151.899 187.122 151.533 178.446Z" fill="#4B5F73"/>
<path d="M154.722 185.398C154.095 184.718 154.199 183.882 154.304 183.046C154.774 182.21 154.669 181.269 154.669 180.38C154.513 173.481 154.826 166.582 155.088 159.684C155.14 157.802 155.349 155.921 155.61 154.039C156.185 150.015 154.513 147.14 150.697 145.52C146.307 143.691 141.656 142.959 137.004 142.332C131.778 141.6 126.499 141.234 121.325 140.294C112.649 138.673 105.959 134.283 102.928 125.503C102.457 123.046 102.562 120.747 104.496 118.917C105.018 118.761 105.541 118.604 106.064 118.499C106.482 118.029 106.952 117.82 107.579 117.977C107.945 118.029 108.206 118.186 108.415 118.499C114.478 118.29 120.384 119.597 126.29 120.642C127.126 120.799 127.91 121.06 128.799 120.851C133.659 122.315 138.572 123.569 143.328 125.503C145.21 126.653 147.3 127.489 149.286 128.43C152.422 129.997 155.192 132.036 157.858 134.231C161.412 137.105 162.352 141.234 163.502 145.363C164.756 149.858 165.279 154.457 165.593 159.109C165.331 164.649 165.07 170.189 164.756 175.677C164.443 181.791 164.077 187.906 163.659 194.021C163.45 197.157 163.136 200.241 162.875 203.377C162.875 203.481 162.823 203.638 162.823 203.742C162.457 203.742 162.039 203.742 161.673 203.742C160.68 203.377 160.105 202.802 160.053 201.6C160 200.241 159.06 199.143 158.485 197.889C157.596 195.955 155.767 194.126 156.708 191.617C156.812 191.147 156.394 191.147 156.133 190.99C155.976 190.885 155.872 190.781 155.767 190.624C155.349 188.952 156.342 186.861 154.722 185.398Z" fill="#8CAAC8"/>
<path d="M157.439 192.035C158.171 194.492 158.276 197.209 160.889 198.673C161.307 198.934 161.621 199.091 161.359 199.718C160.837 201.077 161.046 202.436 161.725 203.742C160.209 204.213 158.642 204.422 157.021 204.526C154.669 198.882 154.931 192.924 154.669 186.966C155.715 186.757 155.976 187.384 156.028 188.272C156.081 189.004 155.819 189.788 156.237 190.52C156.342 190.52 156.499 190.52 156.603 190.52C157.544 190.729 158.067 191.094 157.439 192.035Z" fill="#6E88A2"/>
<path d="M107.684 118.447C107.161 118.447 106.639 118.447 106.116 118.499C105.698 113.639 104.391 108.935 104.13 104.022C105.018 105.642 105.959 107.315 105.855 109.196C105.802 109.823 106.116 109.771 106.482 109.876C107.37 112.071 108.52 114.214 108.52 116.67C108.52 117.349 108.259 117.977 107.684 118.447Z" fill="#F0502E"/>
<path d="M124.565 116.513C124.409 116.67 124.304 116.827 124.147 116.931C120.75 116.043 118.555 113.586 116.464 110.973C119.025 111.914 121.273 113.43 123.834 114.266C123.834 115.102 124.147 115.782 124.565 116.513Z" fill="#AF311B"/>
<path d="M103.398 100.886C102.248 99.9978 101.255 99.0047 100.89 97.5413C100.733 97.0187 100.524 96.5483 99.8965 96.5483C99.8965 94.7191 99.8965 92.8898 99.8965 91.0605C102.248 93.9351 102.98 97.3323 103.398 100.886Z" fill="#F26041"/>
<path d="M107.684 118.447C107.788 116.147 108.416 113.743 106.273 111.862C105.593 111.287 107.213 110.607 106.534 109.823C108.05 110.817 108.363 112.437 108.729 113.952C108.938 114.789 108.938 115.834 109.409 116.513C110.349 117.872 109.409 118.081 108.52 118.395C108.207 118.447 107.945 118.447 107.684 118.447Z" fill="#F26041"/>
<path d="M110.82 222.61C110.924 221.565 108.781 221.617 109.67 220.206C111.97 219.735 112.649 221.878 113.956 222.924C112.91 222.924 111.813 223.08 110.82 222.61Z" fill="#AF311B"/>
<path d="M83.0148 206.512C82.0218 207.453 81.1856 207.767 80.4539 206.199C80.1926 205.624 79.5654 205.31 78.9905 205.467C77.2135 205.938 75.9591 205.31 74.9138 203.952C74.7048 203.69 74.4957 203.586 74.2867 203.795C73.0846 204.735 72.2484 203.795 71.3076 203.272C70.1055 202.593 68.9035 201.861 67.3878 202.122C66.3948 202.279 66.5515 200.92 65.7676 200.659C67.44 199.875 68.9557 200.763 70.4191 201.338C70.994 201.6 71.4644 201.913 72.1438 202.018C74.6003 202.331 76.7954 203.533 78.9905 204.579C79.8789 204.997 80.9242 205.258 81.865 205.258C82.9103 205.31 82.9103 205.885 83.0148 206.512Z" fill="#AF311B"/>
<path d="M100.628 215.136C100.157 215.607 99.7393 215.607 99.1121 215.241C97.2306 214.143 95.2446 213.15 93.2585 212.157C92.7359 211.896 92.161 211.791 91.6383 211.582C91.0112 210.85 91.3247 210.119 92.0042 209.91C93.0495 209.544 93.5721 210.38 93.9902 211.216C96.3944 211.164 98.2759 212.523 100.262 213.568C100.471 214.039 101.098 214.457 100.628 215.136Z" fill="#AF311B"/>
<path d="M108.468 219.056C106.586 219.579 105.28 218.951 104.548 217.122C104.6 215.502 105.07 214.875 106.377 216.391C107.057 217.227 109.252 216.652 108.624 218.742C108.572 218.795 108.52 218.951 108.468 219.056Z" fill="#AF311B"/>
<path d="M87.3008 208.081C86.8304 208.237 86.0465 209.857 86.0465 207.767C86.0465 207.087 85.2103 207.61 84.7921 207.401C84.0604 207.14 84.8444 208.342 84.1127 208.394C83.4855 207.924 83.2765 207.192 83.0151 206.513C84.2695 206.147 85.4716 206.408 86.6736 206.931C87.1963 207.192 87.5099 207.506 87.3008 208.081Z" fill="#AF311B"/>
<path d="M93.9905 211.216C93.1543 211.007 92.0045 209.021 91.6386 211.582C90.0184 211.269 91.6386 209.857 90.8547 209.23C90.7501 208.917 90.5934 208.551 90.9069 208.342C91.3773 208.028 92.0045 208.342 92.0567 208.708C92.2135 210.014 95.1926 209.021 93.9905 211.216Z" fill="#AF311B"/>
<path d="M100.628 215.136C100.471 214.614 100.367 214.091 100.21 213.568C102.248 214.039 103.241 215.711 104.496 217.07C103.921 217.331 103.241 217.802 102.928 216.913C102.562 215.816 101.36 215.763 100.628 215.136Z" fill="#AF311B"/>
<path d="M228.937 218.795C228.78 219.37 228.31 219.422 227.84 219.317C227.369 219.213 227.003 218.951 227.108 218.377C227.212 217.958 227.474 217.697 227.944 217.802C228.467 217.906 228.885 218.167 228.937 218.795Z" fill="#F3F3F3"/>
<path d="M104.548 118.917C104.914 121.322 102.771 123.151 102.98 125.503C102.719 125.607 102.458 125.764 102.196 125.869C102.614 123.621 102.301 121.531 101.046 119.597C102.248 119.44 103.398 119.179 104.548 118.917Z" fill="#6E88A2"/>
<path d="M165.645 159.109C164.443 155.502 163.659 151.792 163.241 148.081C162.143 139.091 156.969 133.395 149.391 129.266C147.3 128.116 145.105 127.175 143.38 125.45C146.621 126.339 149.704 127.593 152.788 128.952C154.617 129.788 156.394 130.625 158.223 131.461C160.053 132.193 161.83 133.029 163.659 133.604C166.481 134.544 167.631 136.478 167.631 139.353C167.683 143.743 167.004 148.029 166.377 152.314C166.011 154.562 165.75 156.809 165.645 159.109Z" fill="#A3BED9"/>
<path d="M101.83 129.423C101.516 128.43 101.621 127.593 102.614 127.071C102.771 127.332 102.928 127.646 103.137 127.855C103.555 128.325 103.816 128.795 103.346 129.37C102.823 130.05 102.353 129.788 101.83 129.423Z" fill="#6E88A2"/>
<path d="M156.29 190.467C155.61 189.37 156.237 187.697 154.722 186.966C154.722 186.443 154.722 185.92 154.722 185.398C155.192 185.554 155.662 185.764 156.185 185.92C157.021 186.182 157.387 186.704 156.865 187.488C156.185 188.429 156.29 189.474 156.29 190.467Z" fill="#6E88A2"/>
<path d="M157.439 192.035C157.23 191.46 157.126 190.885 156.655 190.467C156.917 190.467 157.178 190.363 157.439 190.415C158.014 190.572 158.955 190.154 158.955 191.147C158.955 192.035 158.119 191.983 157.439 192.035Z" fill="#6E88A2"/>
</svg>
