<svg width="311" height="267" viewBox="0 0 311 267" fill="none" xmlns="http://www.w3.org/2000/svg">
<path d="M291 75C291 86.598 281.598 96 270 96C258.402 96 249 86.598 249 75C249 63.402 258.402 54 270 54C281.598 54 291 63.402 291 75ZM260.13 75C260.13 80.451 264.549 84.87 270 84.87C275.451 84.87 279.87 80.451 279.87 75C279.87 69.5489 275.451 65.13 270 65.13C264.549 65.13 260.13 69.5489 260.13 75Z" fill="#C49FB6"/>
<circle cx="220.5" cy="42.5" r="9.5" fill="#EB969A"/>
<circle cx="290.5" cy="176.5" r="9.5" fill="#EB969A"/>
<circle cx="16.5686" cy="228.568" r="4" transform="rotate(8.86035 16.5686 228.568)" fill="#EB969A"/>
<circle cx="255" cy="254" r="4" fill="#EB969A"/>
<circle cx="92.5" cy="24.5" r="19.5" fill="#F7B9A9"/>
<circle cx="15.5" cy="147.5" r="15.5" fill="#F7B9A9"/>
<path d="M196 6C196 9.31371 193.314 12 190 12C186.686 12 184 9.31371 184 6C184 2.68629 186.686 0 190 0C193.314 0 196 2.68629 196 6ZM187.18 6C187.18 7.55744 188.443 8.82 190 8.82C191.557 8.82 192.82 7.55744 192.82 6C192.82 4.44256 191.557 3.18 190 3.18C188.443 3.18 187.18 4.44256 187.18 6Z" fill="#F7B9A9"/>
<path d="M311 120C311 123.314 308.314 126 305 126C301.686 126 299 123.314 299 120C299 116.686 301.686 114 305 114C308.314 114 311 116.686 311 120ZM302.18 120C302.18 121.557 303.443 122.82 305 122.82C306.557 122.82 307.82 121.557 307.82 120C307.82 118.443 306.557 117.18 305 117.18C303.443 117.18 302.18 118.443 302.18 120Z" fill="#F7B9A9"/>
<path d="M17 93C17 96.3137 14.3137 99 11 99C7.68629 99 5 96.3137 5 93C5 89.6863 7.68629 87 11 87C14.3137 87 17 89.6863 17 93ZM8.18 93C8.18 94.5574 9.44256 95.82 11 95.82C12.5574 95.82 13.82 94.5574 13.82 93C13.82 91.4426 12.5574 90.18 11 90.18C9.44256 90.18 8.18 91.4426 8.18 93Z" fill="#F7B9A9"/>
<path d="M60 63.5C60 69.8513 54.8513 75 48.5 75C42.1487 75 37 69.8513 37 63.5C37 57.1487 42.1487 52 48.5 52C54.8513 52 60 57.1487 60 63.5ZM42.75 63.5C42.75 66.6756 45.3244 69.25 48.5 69.25C51.6756 69.25 54.25 66.6756 54.25 63.5C54.25 60.3244 51.6756 57.75 48.5 57.75C45.3244 57.75 42.75 60.3244 42.75 63.5Z" fill="#C49FB6"/>
<path d="M285 220.5C285 224.642 281.642 228 277.5 228C273.358 228 270 224.642 270 220.5C270 216.358 273.358 213 277.5 213C281.642 213 285 216.358 285 220.5ZM273.75 220.5C273.75 222.571 275.429 224.25 277.5 224.25C279.571 224.25 281.25 222.571 281.25 220.5C281.25 218.429 279.571 216.75 277.5 216.75C275.429 216.75 273.75 218.429 273.75 220.5Z" fill="#C49FB6"/>
<path d="M79 259.5C79 263.642 82.3579 267 86.5 267C90.6421 267 94 263.642 94 259.5C94 255.358 90.6421 252 86.5 252C82.3579 252 79 255.358 79 259.5ZM90.25 259.5C90.25 261.571 88.5711 263.25 86.5 263.25C84.4289 263.25 82.75 261.571 82.75 259.5C82.75 257.429 84.4289 255.75 86.5 255.75C88.5711 255.75 90.25 257.429 90.25 259.5Z" fill="#C49FB6"/>
<path d="M48.915 120.395C50.9259 120.212 51.2915 119.116 51.1087 117.288C50.9259 111.072 50.9259 104.857 51.1087 98.6418C51.1087 96.8137 50.7431 95.7169 48.915 95.5341C49.2806 94.6201 50.0119 94.62 50.9259 94.4372C52.0227 94.2544 52.9367 94.4372 54.0335 94.4372C106.681 94.4372 159.328 94.4372 211.792 94.4372C212.889 94.4372 214.169 94.4372 215.265 94.4372C216.728 94.62 217.276 95.1684 217.459 96.6309C217.642 98.8245 217.459 100.835 217.459 103.029C217.459 108.147 217.459 113.083 217.459 118.202C217.459 121.126 217.093 121.492 214.169 121.492C210.147 121.492 206.125 121.492 202.104 121.492C201.19 121.492 200.276 121.492 199.362 120.761C199.179 120.578 198.996 120.212 199.179 120.03C199.91 118.75 201.19 118.933 202.286 118.933C205.211 118.933 208.136 118.933 211.061 118.933C213.986 118.933 214.9 118.019 214.9 115.094C214.9 110.524 214.9 105.954 214.9 101.384C214.9 98.0933 213.986 97.1792 210.695 97.1792C204.663 97.1792 198.63 97.1792 192.598 97.1792C178.339 97.1792 163.898 97.1792 149.639 97.1792C148.725 97.1792 147.811 97.1792 147.08 97.1792C145.435 97.362 144.521 98.2761 144.521 99.9213C144.338 105.405 144.338 110.707 144.521 116.191C144.521 118.019 145.618 118.933 147.446 119.116C148.36 119.116 149.274 119.116 150.005 119.116C160.607 119.116 171.027 119.116 181.63 119.116C182.544 119.116 183.458 119.116 184.555 119.298C185.469 119.481 186.383 119.664 186.017 120.944C185.469 121.675 184.555 121.675 183.823 121.675C182.727 121.675 181.813 121.675 180.716 121.675C138.488 121.675 96.4438 121.675 54.2164 121.675C53.1195 121.675 52.0227 121.675 50.9259 121.675C50.1947 121.309 49.2806 121.309 48.915 120.395Z" fill="#EFC9BF"/>
<path d="M243.782 196.624C243.782 203.936 243.6 211.248 243.782 218.743C243.782 220.937 243.051 221.302 241.223 221.302C229.524 221.302 218.007 221.302 206.308 221.302C205.211 221.302 204.297 221.485 203.383 220.754C202.469 220.388 202.652 219.474 202.469 218.743C202.286 214.721 199.91 212.71 195.705 213.259C193.694 213.624 191.684 214.173 189.673 214.904C188.759 215.27 187.845 215.453 187.114 214.539C186.2 211.431 186.931 208.872 188.942 206.495C189.49 204.667 189.673 202.839 189.673 200.828C189.673 197.538 189.673 194.43 189.124 191.14C188.942 189.86 189.307 188.946 190.77 188.946C191.135 188.946 191.501 188.946 191.866 188.946C209.233 188.946 226.599 188.946 243.782 188.946C244.331 188.946 244.879 188.946 245.611 189.129C246.89 190.591 246.525 194.43 244.696 195.893C244.331 196.258 244.148 196.441 243.782 196.624Z" fill="#FEFEFE"/>
<path d="M85.292 183.828C88.3996 183.096 88.3997 183.097 88.3997 179.623C88.3997 174.322 88.3997 168.838 88.3997 163.537C88.3997 162.44 88.3996 161.343 88.7652 160.246C89.3136 158.967 90.4104 159.149 91.3245 159.149C94.7977 158.967 98.2709 159.149 101.927 159.149C117.465 159.149 133.003 159.149 148.542 159.149C153.295 159.149 153.477 159.332 152.929 164.085C152.563 167.193 152.381 170.3 152.929 173.408C153.112 173.956 153.294 174.688 152.746 175.236C152.563 175.419 152.381 175.602 152.015 175.602C151.101 174.87 149.821 175.236 148.907 175.236C133.186 175.784 117.465 175.236 105.4 175.419C118.379 175.236 134.832 175.602 151.467 175.236C152.381 175.419 152.38 176.15 151.832 176.333C149.638 177.612 147.81 178.892 145.434 179.989C145.251 180.172 144.886 179.806 144.703 179.806C143.972 179.623 143.24 179.44 142.326 179.44C132.455 179.44 122.584 179.44 112.53 179.44C122.584 179.44 132.455 179.44 142.509 179.44C143.423 179.44 144.154 179.623 145.068 179.989C145.982 181.817 145.434 183.462 143.606 184.559C142.509 184.925 141.412 184.924 140.133 184.924C123.132 184.924 105.949 184.924 88.948 184.924C87.8512 185.107 86.206 185.656 85.292 183.828Z" fill="#EFC9BF"/>
<path d="M187.661 214.356C190.769 213.442 193.876 212.162 197.167 211.979C201.554 211.797 204.479 215.27 203.565 219.657C203.565 220.023 203.382 220.388 203.382 220.754C203.199 221.119 203.199 221.302 203.016 221.668C203.748 223.313 205.21 223.13 206.49 223.313C209.78 223.313 213.253 223.313 216.544 223.313C225.318 223.313 234.276 223.313 243.05 223.313C244.147 223.313 245.609 222.947 246.341 224.41C245.427 224.958 244.513 224.775 243.599 224.775C232.082 224.775 220.748 224.775 209.232 224.775C208.318 224.775 207.404 224.775 206.307 224.958C205.759 226.055 204.662 226.055 203.565 226.055C201.92 226.055 200.64 226.603 199.543 227.883C194.425 233.184 187.844 236.109 180.715 237.572C180.349 237.572 180.166 237.937 179.801 238.12C177.607 239.217 175.413 240.131 173.585 241.959C172.671 242.873 170.843 242.325 169.381 242.142C166.09 240.679 162.983 242.507 159.875 242.873C157.864 242.69 156.585 241.776 156.219 239.582C156.036 238.303 155.122 237.754 153.843 237.937C153.294 238.12 152.746 237.937 152.197 237.754C148.358 236.84 144.702 235.561 141.229 233.733C138.122 232.27 135.38 230.26 133.003 228.066C131.541 226.603 130.078 225.872 127.885 225.872C126.971 225.872 126.057 225.689 125.691 224.775C122.583 224.775 119.476 224.593 116.368 224.593C101.561 224.593 86.5712 224.593 71.7642 224.593C70.6674 224.593 69.3878 224.775 68.291 224.41C69.0222 223.313 70.3018 223.679 71.2158 223.679C86.3884 223.679 101.561 223.679 116.734 223.679C120.39 223.679 124.046 223.13 127.702 222.582C128.433 222.399 128.25 221.668 128.25 221.119C127.519 218.56 127.336 216.001 129.164 213.807C130.809 211.614 132.637 210.517 135.197 211.065C138.487 211.065 141.412 211.796 144.337 213.259C147.262 213.99 149.455 216.001 152.197 217.281C153.843 219.291 156.036 220.754 158.047 222.399C160.058 224.227 162.252 225.872 164.445 227.335C166.456 228.614 167.004 228.614 168.832 227.152C171.94 224.775 174.682 222.216 177.607 219.474C178.521 218.743 179.801 218.56 180.166 217.098C181.811 216.184 183.274 215.27 184.919 214.356C185.65 214.173 186.564 213.625 187.661 214.356Z" fill="#6E88A2"/>
<path d="M108.69 92.2437C115.82 92.2437 122.949 92.2437 129.895 92.2437C131.175 92.2437 132.272 92.0608 133.369 91.1468C135.197 89.6844 137.573 89.3188 139.767 89.3188C141.595 89.3188 142.326 88.5876 142.326 86.7596C142.326 83.1035 142.326 83.1035 139.036 81.6411C136.842 80.7271 134.831 79.4475 133.186 77.8022C132.272 76.8882 131.906 75.9742 133.003 75.243C134.283 74.1462 133.734 73.2322 133.003 72.1354C128.067 65.0061 128.433 56.7799 133.917 50.0162C137.939 45.0806 145.799 42.7041 151.101 44.715C151.466 44.8978 151.832 45.2634 151.832 45.629C152.197 48.1882 154.208 49.2851 156.402 49.6507C158.961 50.1991 161.155 50.9303 162.252 53.4895C162.617 54.4035 163.531 54.4035 164.262 54.5863C165.359 55.1347 165.176 56.4143 165.542 57.3283C166.456 61.35 166.456 65.3717 164.628 69.2105C163.714 70.4901 162.434 69.9417 161.337 69.7589C160.241 69.5761 158.961 68.4793 158.23 69.7589C157.316 71.4042 156.036 73.0494 156.767 75.243C156.95 75.7914 157.499 76.3398 157.681 76.8882C157.681 78.1679 156.585 78.5335 155.671 78.8991C149.821 81.4583 143.971 81.2755 139.036 78.5334C144.702 82.1895 155.122 81.8239 161.886 74.1462C167.187 68.1137 167.736 57.8768 163.166 51.4787C162.617 50.9303 162.069 50.7475 161.155 50.5647C160.241 50.5647 159.509 50.1991 159.875 48.9195C160.058 47.8226 160.424 46.9086 161.52 46.543C162.8 46.1774 163.348 47.2742 163.897 48.0055C174.499 60.8016 167.918 79.4474 151.649 82.9207C150.552 83.1035 149.273 83.1035 148.176 83.1035C145.982 83.1035 146.348 84.7487 146.348 86.0284C146.348 87.4908 146.165 88.9532 148.176 89.136C151.649 89.3188 154.939 89.5016 157.864 91.8781C158.413 92.4265 159.509 92.2437 160.423 92.2437C166.639 92.2437 173.037 92.4265 179.252 92.4265C179.252 93.3405 178.521 93.5233 177.79 93.7061C177.059 93.8889 176.327 93.8889 175.596 93.8889C153.294 93.8889 130.992 93.8889 108.69 93.8889C107.959 93.8889 107.228 93.8889 106.497 93.7061C105.766 93.5233 105.034 93.3405 104.852 92.4265C105.217 91.3296 106.131 91.5124 107.045 91.5124C107.776 91.6952 108.325 91.8781 108.69 92.2437Z" fill="#ADBEE9"/>
<path d="M198.996 127.342C200.276 126.793 201.372 126.428 202.835 126.428C213.255 126.428 223.857 126.428 234.277 126.428C237.019 126.428 237.202 126.611 237.202 129.17C237.202 136.116 237.202 142.88 237.202 149.827C237.202 153.117 236.653 153.665 233.363 153.665C229.341 153.665 225.319 153.483 221.298 153.665C218.739 153.848 217.093 152.934 216.179 150.558C215.631 149.278 216.545 149.278 217.276 149.278C219.104 149.278 221.115 149.278 222.029 149.278C219.287 149.278 215.814 149.278 212.341 149.827C211.609 150.009 210.878 150.009 210.147 149.827C208.319 149.461 207.953 148.73 208.685 147.085C209.781 144.708 208.867 143.246 206.125 143.063C204.297 142.88 202.835 143.611 201.555 144.708C199.179 147.084 197.716 147.084 195.34 144.525C194.06 143.246 192.598 142.697 190.953 142.88C189.307 143.063 187.845 142.88 186.2 142.697C185.103 142.514 184.189 142.88 183.275 143.428C183.092 143.611 182.909 143.794 182.727 143.794C182.178 144.16 181.812 144.708 181.447 145.256C179.984 146.536 178.156 146.171 177.425 144.342C177.425 144.16 177.242 143.977 177.242 143.977C177.06 142.88 175.78 141.783 176.694 140.504C177.791 139.041 179.619 138.676 181.264 138.858C183.641 139.224 186.017 139.224 188.393 139.224C196.254 139.224 204.297 139.224 212.158 139.224C203.2 139.224 194.243 139.224 185.286 139.224C184.555 139.224 184.006 139.224 183.275 139.224C182.178 139.224 181.447 138.858 181.63 137.762C181.63 136.665 182.361 136.299 183.458 136.299C185.286 136.116 187.114 136.299 188.942 136.299C201.19 136.299 213.437 136.299 225.502 136.299C213.437 136.299 201.555 136.299 189.49 136.299C187.662 136.299 185.834 135.934 184.006 136.299C183.092 136.482 182.361 136.299 181.995 135.202C181.63 134.106 180.533 133.191 181.264 131.912C181.995 130.815 183.275 131.181 184.189 131.181C193.329 131.181 202.469 131.363 211.609 131.729C205.394 131.546 199.179 131.363 192.963 131.363C192.232 131.363 191.501 131.181 191.135 130.449C190.953 129.718 191.135 129.17 191.867 128.987C194.426 128.256 196.62 127.342 198.996 127.342Z" fill="#FEFEFE"/>
<path d="M198.996 127.342C198.63 128.621 197.533 128.621 196.437 128.987C194.974 129.353 193.512 129.718 192.049 130.084C190.587 131.729 188.576 131.363 186.748 131.363C185.834 131.363 186.017 130.267 186.017 129.535C186.017 128.621 186.2 127.707 184.92 127.707C172.124 126.062 159.145 126.793 146.166 126.976C139.951 127.159 133.735 127.159 127.337 127.159C111.616 127.342 95.8951 127.159 80.1741 127.159C79.2601 127.159 78.346 127.159 77.6148 127.159C75.604 127.342 74.69 128.073 74.5072 130.084C74.3244 136.482 74.3244 142.88 74.5072 149.278C74.5072 151.289 75.4212 152.203 77.6148 152.386C79.9913 152.568 82.5505 152.569 84.9269 153.117C86.3894 153.483 87.669 152.386 89.1314 152.386C89.6798 152.386 90.0454 152.751 90.5938 152.934C92.0562 153.117 93.7014 153.665 95.1638 152.934C98.2715 152.568 101.196 152.386 104.304 152.569C110.154 152.934 116.003 152.569 121.853 152.751C126.423 152.934 130.993 152.934 135.563 152.569C138.123 152.386 140.682 152.751 143.058 153.117C146.349 153.483 149.639 153.3 152.93 153.483C153.478 153.483 154.026 153.483 154.575 154.031C154.94 155.493 155.123 156.956 153.661 158.053C152.015 158.418 150.37 158.418 148.908 158.053C145.983 157.321 143.058 157.504 140.133 157.504C122.767 157.504 105.584 157.687 88.2174 157.321C82.5505 157.139 76.8836 157.321 71.2167 156.773C70.3027 156.407 70.3027 155.493 70.3027 154.762C70.3027 144.525 70.4855 134.471 70.4855 124.234C70.8511 123.32 71.7651 123.137 72.6791 123.137C74.8728 123.137 77.2492 123.137 79.4429 123.137C110.885 123.137 142.144 123.137 173.586 123.137C177.608 123.137 181.63 122.406 185.468 122.041C186.565 121.675 187.114 121.126 186.931 119.847C186.017 115.277 184.006 111.621 180.35 108.879C178.887 107.782 179.07 106.319 180.533 106.137C184.372 105.771 188.393 105.223 192.049 106.685C196.985 108.696 199.361 112.718 200.275 117.836C200.458 118.75 200.093 119.298 199.544 119.664C199.544 119.847 199.544 120.03 199.544 120.212C200.824 121.675 202.469 122.223 204.48 122.223C208.502 122.223 212.523 122.223 216.362 122.223C217.459 122.223 218.738 122.223 219.652 122.955C220.566 122.955 221.48 122.955 222.212 122.955C222.76 122.041 223.857 122.041 224.771 122.041C228.975 121.858 233.18 122.406 237.567 122.041C239.03 121.858 239.944 122.589 240.309 123.869C240.492 126.428 238.847 126.062 237.201 126.062C225.319 126.062 213.437 126.062 201.555 126.062C200.458 126.062 199.179 125.696 198.996 127.342Z" fill="#FF5456"/>
<path d="M243.783 196.624C244.514 194.43 245.245 192.054 245.428 189.677C245.245 189.495 245.062 189.312 244.879 188.946C244.514 188.032 243.783 188.032 242.869 187.849C237.567 187.301 232.266 187.484 226.782 187.667C215.448 187.667 204.115 187.484 192.781 187.849C191.501 187.849 190.222 187.849 189.125 186.935C188.393 186.021 188.028 185.107 188.942 184.193C189.856 183.645 190.953 183.828 191.867 183.828C207.222 183.828 222.76 183.828 238.116 183.828C239.395 183.828 240.858 184.011 241.955 182.731C242.137 182.548 242.32 182.365 242.32 182.182C242.869 181.086 242.32 179.989 241.772 179.075C240.675 177.247 239.213 175.784 237.567 174.322C236.288 173.225 236.471 171.946 237.933 171.763C243.6 171.214 249.267 170.666 253.654 175.602C254.934 177.064 255.848 178.709 256.762 180.354C257.127 181.086 257.493 182 258.59 181.817C259.504 181.634 259.504 180.537 259.686 179.806C259.686 174.688 259.869 169.569 259.686 164.451C259.686 162.44 258.772 161.709 256.762 161.526C255.848 161.526 254.934 161.526 254.202 161.526C235.191 161.526 215.997 161.526 196.985 161.526C195.34 161.526 193.695 161.526 192.232 161.343C189.673 161.526 186.931 161.343 184.372 161.526C182.178 161.526 181.264 162.44 181.447 164.633C181.63 167.01 181.995 169.204 181.813 171.58C181.813 172.86 181.63 174.139 181.081 175.419C179.985 178.527 176.511 179.989 173.221 178.526C172.307 177.978 172.307 177.247 172.672 176.333C173.038 175.419 173.586 174.505 173.586 173.591C174.5 171.214 174.501 168.655 175.232 166.279C175.597 164.999 174.866 164.085 174.866 162.805C175.049 159.149 173.952 155.859 171.758 152.934C171.393 152.568 171.027 152.02 171.027 151.472C171.027 150.923 171.393 150.192 170.844 149.827C170.479 149.461 170.296 150.192 169.93 150.558C169.748 150.74 169.748 150.923 169.565 151.106C167.188 152.568 165.543 151.837 165.36 149.095C165.36 148.364 165.36 147.816 165.36 147.084C165.36 145.622 165.909 145.074 167.371 145.074C169.016 145.074 170.479 144.708 171.941 144.342C172.672 144.16 173.221 144.525 173.769 144.708C174.866 145.256 175.78 145.988 176.329 147.084C176.329 148.73 176.328 150.192 176.877 151.837C177.242 152.751 177.608 153.3 178.339 153.483C179.253 154.031 179.802 155.311 181.081 155.493C185.103 155.859 189.125 156.59 193.329 156.59C207.953 156.407 222.578 156.59 237.202 156.59C238.299 156.59 239.395 156.225 240.309 157.139C241.955 157.139 243.417 157.139 245.062 157.139C245.793 156.407 246.708 156.225 247.622 156.225C252.374 156.225 256.944 156.042 261.697 156.225C264.074 156.225 264.257 156.59 264.257 158.967C264.257 167.558 264.257 176.15 264.257 184.742C264.257 186.57 263.708 186.935 262.063 186.935C260.601 186.935 258.955 186.57 257.493 187.118C256.944 194.065 256.944 194.065 250.181 195.71C247.804 196.076 245.794 196.99 243.783 196.624Z" fill="#3E4E50"/>
<path d="M174.865 147.633C174.317 146.902 173.769 146.17 173.037 145.439C173.037 145.256 173.037 145.256 173.037 145.074C173.769 143.246 173.22 141.966 171.758 140.686C169.93 138.858 168.833 136.482 169.93 133.74C171.209 130.632 173.037 128.439 176.694 128.621C178.156 128.621 179.618 128.621 180.898 129.353C183.64 130.815 184.188 130.449 185.102 127.525C185.102 127.159 185.285 126.976 185.285 126.611C185.468 126.428 185.651 126.245 185.651 126.245C187.844 126.062 187.296 127.342 186.93 128.621C186.199 131.363 186.199 131.363 188.941 130.632C189.855 130.449 190.769 130.267 191.683 130.084C193.511 131.363 195.522 130.815 197.35 130.815C203.2 130.632 209.05 131.729 215.082 131.729C214.351 131.729 213.62 131.729 212.888 131.729C203.383 131.729 194.06 131.729 184.554 131.729C183.823 131.729 182.543 131.363 182.36 132.277C182.178 133.374 182.726 134.471 183.64 135.202C184.371 135.934 184.92 135.385 185.468 134.837C185.834 134.471 186.199 134.288 186.565 134.654C187.479 136.116 188.941 135.568 190.221 135.751C202.651 135.751 215.265 135.751 227.695 135.751C228.609 135.751 229.341 135.751 230.803 135.751C229.523 136.848 228.609 136.665 227.695 136.665C213.802 136.665 199.909 136.665 186.016 136.665C185.102 136.665 184.188 136.482 183.274 137.03C182.909 137.213 182.543 137.579 182.543 138.127C182.543 138.676 183.092 138.676 183.457 138.858C184.554 138.858 185.468 139.041 186.565 139.041C195.339 139.041 203.931 139.041 212.706 139.041C213.437 139.041 214.351 139.041 215.63 139.041C213.62 139.955 212.157 139.955 210.878 139.955C202.103 139.955 193.146 139.955 184.371 139.955C183.092 139.955 181.812 140.138 180.715 140.321C177.608 140.869 177.607 140.869 178.339 143.977C178.521 144.525 178.521 145.439 179.253 145.439C179.984 145.622 180.532 145.074 180.898 144.525C181.446 143.794 181.995 143.246 182.726 143.063C183.457 143.611 184.188 143.063 184.737 143.063C185.468 143.063 186.199 143.063 186.565 143.063C185.468 142.514 184.006 143.611 182.543 143.063C184.554 141.783 192.963 141.966 194.974 143.246C196.071 143.977 196.436 145.805 198.081 145.622C199.727 145.622 200.275 143.977 201.372 143.246C203.931 141.418 208.501 141.966 209.964 144.525C210.512 145.622 210.878 146.536 209.781 147.45C209.415 147.816 208.684 148.181 209.05 148.912C209.232 149.461 209.964 149.278 210.512 149.278C214.716 149.278 218.921 149.278 223.125 149.461C224.039 149.461 224.771 149.278 225.685 150.375C223.308 150.375 220.932 150.375 218.555 150.375C217.458 150.375 216.362 150.009 215.63 151.289C213.62 150.74 212.157 151.106 211.426 153.117C210.878 154.397 209.781 154.397 208.684 154.214C207.953 154.031 207.222 153.665 206.49 154.397C205.759 155.676 204.48 155.859 203.2 155.859C195.888 155.859 188.576 155.859 181.264 155.859C179.618 155.859 178.339 155.493 177.059 154.579C175.962 153.665 175.962 152.02 175.231 150.923C175.231 149.461 175.414 148.364 174.865 147.633Z" fill="#F6F6F6"/>
<path d="M219.652 123.137C218.373 123.868 216.91 123.503 215.631 123.503C211.243 123.503 206.856 123.503 202.652 123.503C199.727 123.503 199.727 123.503 199.727 120.395C204.845 120.395 209.781 120.395 214.9 120.395C216.362 120.395 216.91 119.847 216.91 118.384C216.91 111.255 216.91 104.126 216.91 97.1793C216.91 95.8997 216.362 95.3513 215.082 95.3513C214.351 95.3513 213.62 95.3513 212.889 95.3513C159.693 95.3513 106.498 95.3513 53.3021 95.3513C52.0225 95.3513 50.7428 95.3513 49.2804 95.3513C48.3664 94.4373 48.0008 93.5233 49.2804 92.6092C61.8938 92.4264 74.6899 92.6092 87.3033 92.6092C89.3141 92.6092 91.325 92.4264 93.153 92.6092C96.2607 92.792 99.0027 92.2437 101.928 91.1468C103.39 90.964 104.487 91.5125 105.401 92.4265C107.229 92.4265 109.057 92.6092 110.885 92.6092C132.821 92.6092 154.94 92.6092 176.877 92.6092C177.791 92.6092 178.705 92.4265 179.619 92.4265C180.35 92.4265 180.898 92.4265 181.63 92.4265C182.544 92.6093 183.458 92.4265 184.554 92.2437C187.845 91.5125 191.135 91.5125 194.426 92.2437C194.791 92.4265 195.157 92.6092 195.705 92.6092C202.286 92.6092 208.867 92.7921 215.265 92.4265C219.835 92.6093 219.835 92.6093 219.835 97.3622C219.47 105.954 219.47 114.546 219.652 123.137Z" fill="#FE7D57"/>
<path d="M153.295 157.139C154.026 156.225 153.843 155.128 154.209 154.214C154.026 154.031 153.843 153.848 153.843 153.665C153.843 150.375 157.682 145.074 160.607 144.16C161.156 143.977 161.887 143.977 162.435 144.16C163.349 144.525 163.166 145.256 163.166 145.988C163.166 147.084 163.166 147.998 163.166 149.095C163.166 150.74 163.532 152.203 165.177 152.751C165.908 153.117 166.091 153.848 166.64 154.397C167.371 155.128 167.005 155.859 166.457 156.59C165.726 157.504 164.812 158.235 163.715 158.784C160.424 160.429 158.779 162.805 159.876 166.644C159.328 167.741 159.145 168.472 160.424 169.569C161.521 170.483 161.156 172.494 161.156 173.956C161.156 174.688 161.521 175.419 161.887 175.967C162.801 177.612 162.252 178.709 160.79 179.44C157.865 180.72 155.123 179.989 152.929 177.795C152.381 177.247 152.198 176.698 152.381 175.784C150.919 171.214 151.467 166.644 152.198 162.074C152.381 160.795 152.198 160.246 150.919 160.246C130.262 160.246 109.605 160.246 88.9485 160.429C88.4001 160.429 87.8517 160.429 87.3033 160.246C84.9268 160.063 84.5612 159.515 85.4752 157.321C86.0237 156.956 86.7549 157.139 87.4861 157.139C109.057 157.139 130.81 157.139 152.381 157.139C152.564 156.956 152.929 156.956 153.295 157.139Z" fill="#3E4E50"/>
<path d="M188.028 120.395C187.845 121.492 188.576 122.772 187.114 123.503C186.2 123.868 185.468 123.686 184.554 123.686C148.177 123.686 111.799 123.686 75.4212 123.686C73.776 123.686 72.1308 124.051 70.4855 123.503C63.539 123.503 56.7754 123.503 49.8289 123.503C48.9148 123.503 48.0008 123.503 47.6352 122.406C47.2696 121.309 48.0008 120.761 48.9148 120.395C50.5601 120.395 52.2054 120.395 53.6678 120.395C96.6264 120.395 139.585 120.395 182.726 120.395C183.823 120.395 184.737 120.395 185.834 120.395C186.565 119.481 187.296 119.664 188.028 120.395Z" fill="#FE7D57"/>
<path d="M256.944 187.118C258.407 186.387 260.052 186.753 261.697 186.753C262.977 186.753 263.525 186.204 263.525 184.925C263.525 176.333 263.525 167.741 263.525 159.149C263.525 157.504 262.794 157.139 261.332 157.139C255.665 157.139 250.181 157.139 244.514 157.139C244.514 152.386 244.514 147.816 244.514 143.063C244.514 140.504 244.879 140.138 247.439 140.138C253.837 140.138 260.235 140.138 266.45 140.138C268.278 140.138 269.009 140.869 269.009 142.697C269.009 146.719 269.009 150.558 269.009 154.579C269.009 156.407 268.461 157.321 266.45 157.139C264.439 156.956 263.708 157.87 263.891 159.881C263.891 167.924 263.891 176.15 263.891 184.193C263.891 187.118 263.708 187.118 260.966 187.118C259.686 187.118 258.224 187.118 256.944 187.118Z" fill="#ADBEE9"/>
<path d="M129.165 221.668C129.896 222.216 130.262 222.948 130.444 223.862C129.896 224.227 129.347 224.044 128.799 224.044C109.056 224.044 89.3136 224.044 69.571 224.044C69.0226 224.044 68.4742 224.227 67.9258 223.862C67.5602 223.313 67.7429 222.765 67.7429 222.216C67.7429 211.248 67.7429 200.28 67.7429 189.312C67.7429 186.935 67.9258 186.935 70.3022 186.753C74.3239 186.57 78.1627 186.753 82.1844 186.753C82.9156 186.753 83.6468 186.935 84.378 186.57C84.5608 186.57 84.5609 186.57 84.7437 186.57C85.4749 185.839 86.5717 186.021 87.4857 186.021C104.669 186.021 122.035 186.021 139.219 186.021C140.864 186.021 142.509 185.473 143.972 186.387C144.52 186.935 144.337 187.849 144.52 188.581C144.337 189.495 143.789 190.043 142.875 190.043C142.144 190.043 141.23 190.043 140.498 190.043C119.476 190.043 98.4538 190.043 77.6143 190.043C75.9691 190.043 74.3238 189.86 73.227 191.323C71.9474 193.516 71.7646 195.893 71.7646 198.269C71.5818 202.839 71.5818 207.409 71.7646 211.979C71.9474 214.539 71.9474 217.281 73.227 219.84C74.5066 220.937 76.1519 220.754 77.6143 220.754C93.7009 220.754 109.605 220.754 125.691 220.754C126.605 220.571 128.068 220.388 129.165 221.668Z" fill="#FB5D2E"/>
<path d="M59.5175 170.3C59.3347 169.386 58.9691 168.655 58.7863 167.741C58.2379 165.548 58.9691 163.171 60.6144 162.074C62.6252 160.612 65.0015 160.612 66.8296 162.257C67.7436 162.988 68.6576 163.171 69.9372 162.988C73.7761 162.44 77.2494 163.537 80.1742 166.096C81.8195 167.558 82.0022 169.204 81.271 171.032C79.8086 174.87 77.0665 177.43 74.1417 179.989C71.948 181.817 69.7545 183.462 67.0124 184.193C63.9048 185.107 62.4423 184.559 60.7971 181.634C59.8831 179.806 59.3347 177.978 58.9691 175.967C58.7863 175.236 58.7863 174.505 58.4207 173.956C57.6895 172.677 59.5175 171.763 59.5175 170.3Z" fill="#ADBEE9"/>
<path d="M59.5172 170.3C60.0656 171.763 59.3344 173.042 58.6031 174.139C52.0223 179.989 45.2586 186.021 38.6777 191.871C38.3121 192.237 37.7637 192.602 37.9465 192.785C39.2261 195.71 36.6669 198.818 39.2261 201.742C43.6134 207.044 47.0867 212.893 50.9255 218.56C51.8395 220.023 52.9364 220.388 54.5816 220.571C57.5064 220.571 60.4312 220.937 63.1732 222.034C63.9044 222.216 64.4528 222.582 65.0012 223.13C65.7324 223.679 65.5497 224.227 64.6357 224.41C64.2701 224.41 63.9044 224.41 63.5388 224.41C56.0439 224.41 48.549 224.41 41.0541 224.41C40.3229 224.41 39.4089 224.776 39.2261 223.862C39.0433 223.13 39.9573 222.582 40.5058 222.399C42.5166 221.302 44.893 221.119 47.0866 220.937C48.7318 220.754 49.2803 220.388 48.1835 218.743C44.1618 212.893 40.1402 207.044 36.3013 201.194C35.5701 200.28 34.6561 199.732 33.742 199.366C32.0968 198.818 31 197.538 31 195.71C31 193.882 31.914 192.419 33.742 192.054C35.7529 191.688 37.2153 190.226 38.6777 188.946C45.4414 182.914 52.3879 176.698 59.5172 170.3Z" fill="#90A7D1"/>
<path d="M240.31 123.868C239.396 123.137 238.116 122.954 237.019 122.954C232.084 122.954 227.148 122.954 222.212 122.954C221.298 121.858 221.664 120.944 222.395 119.847C223.857 117.47 225.503 115.094 226.965 112.535C228.61 109.61 228.793 106.685 228.062 103.577C230.438 102.846 232.997 102.846 235.374 103.577C234.277 107.416 235.557 110.89 237.568 114.18C238.482 115.642 239.213 117.47 240.31 118.75C241.589 120.578 241.772 122.223 240.31 123.868Z" fill="#ADBEE9"/>
<path d="M102.111 92.4264C98.8202 92.4264 95.347 92.6092 92.0565 92.6092C77.6151 92.6092 63.3564 92.6092 48.915 92.6092C49.8291 92.0608 50.9259 92.2437 51.8399 92.2437C66.647 92.2437 81.6367 92.2437 96.9921 92.2437C94.7985 91.3297 93.3361 89.6844 91.1425 91.5124C92.2393 89.8672 91.6909 88.9532 90.7769 87.6736C88.2176 84.2003 87.3036 78.5334 92.7877 73.2322C92.9705 72.501 93.5189 72.501 94.0673 72.501C95.1641 72.1354 96.0782 71.7698 97.175 71.4041C99.5514 70.6729 99.7342 70.3074 98.2717 68.1137C98.6373 68.1137 99.003 67.9309 99.3686 67.9309C99.917 67.9309 100.283 67.9309 101.197 68.1137C99.3686 70.4902 100.831 71.0385 102.659 71.4041C103.573 71.5869 104.304 72.1354 105.035 72.3182C105.584 72.3182 106.132 72.501 106.315 73.0494C109.788 76.3398 111.251 80.1787 109.788 84.9315C109.24 86.5767 108.326 87.8564 107.229 88.9532C106.864 89.5016 107.046 90.4156 106.315 90.7812C105.035 92.0608 103.39 91.878 102.111 92.4264Z" fill="#90A7D1"/>
<path d="M143.241 186.753C141.962 186.935 140.865 187.118 139.585 187.118C122.585 187.118 105.401 187.118 88.4004 187.118C87.1208 187.118 85.8411 187.118 84.5615 186.57C84.7443 185.656 84.3787 184.559 85.4755 184.01C104.853 184.01 124.413 184.01 143.79 184.01C144.886 185.107 144.704 186.021 143.241 186.753Z" fill="#555555"/>
<path d="M177.608 153.665C181.081 154.396 184.737 154.031 188.21 154.031C194.426 154.031 200.641 154.396 206.856 153.848C210.878 154.396 215.082 154.031 219.104 154.031C225.319 154.214 231.535 154.031 237.75 154.031C239.212 154.031 240.675 154.214 240.126 156.225C239.578 156.773 238.664 156.956 237.933 156.956C218.556 156.956 199.361 156.956 179.984 156.956C179.619 156.956 179.07 156.956 178.705 156.773C178.156 156.042 178.339 154.762 177.425 154.214L177.242 154.031C177.425 153.848 177.425 153.665 177.608 153.665Z" fill="#FF5456"/>
<path d="M125.692 224.776C126.057 224.776 126.24 224.776 126.606 224.776C129.531 224.41 131.907 224.958 134.101 227.518C138.123 231.905 143.606 233.916 149.091 235.926C150.187 236.292 151.467 236.84 152.564 237.206C152.929 237.572 152.929 237.937 152.564 238.486C151.467 239.948 147.811 240.497 146.349 239.4C141.413 237.937 136.477 236.475 131.907 233.55C129.714 232.088 127.52 230.442 126.24 228.066C125.875 226.969 125.326 226.055 125.692 224.776Z" fill="#EFC9BF"/>
<path d="M179.618 237.023C184.371 235.012 189.49 233.733 193.877 230.808C195.339 229.894 196.985 228.98 197.899 227.518C200.092 224.41 203.017 224.227 206.308 224.593C206.308 227.7 204.48 229.894 202.286 231.722C198.081 235.195 192.963 236.841 187.844 238.12C186.748 238.303 185.651 238.303 184.92 239.4C183.64 239.948 179.801 239.034 179.253 238.12C178.887 237.755 179.07 237.389 179.618 237.023Z" fill="#EFC9BF"/>
<path d="M246.341 224.41C232.448 224.41 218.555 224.41 204.662 224.41C204.296 224.41 203.748 224.41 203.382 224.41C201.737 224.593 201.372 224.044 202.286 222.582C202.468 222.216 202.651 222.034 203.017 221.668C216.91 221.668 230.803 221.668 244.696 221.668C245.61 221.668 246.524 221.485 246.889 222.582C247.438 223.313 247.072 223.862 246.341 224.41Z" fill="#FB5D2E"/>
<path d="M146.349 239.217C148.543 238.669 150.919 239.034 152.564 237.023C154.027 237.389 154.941 235.195 156.403 236.292C157.5 237.206 157.317 238.669 157.683 239.948C158.048 241.228 158.779 242.142 160.059 242.69C156.951 243.239 154.392 245.432 151.285 246.346C149.639 246.712 147.994 247.443 146.349 247.991C143.058 245.432 143.059 242.142 144.704 239.583C145.069 239.4 145.8 239.4 146.349 239.217Z" fill="#F29F80"/>
<path d="M187.662 78.3506C186.931 78.7162 186.2 79.8131 185.103 79.2646C184.189 78.7162 184.554 77.4366 184.737 76.7054C185.103 75.0602 184.189 74.329 183.275 73.415C182.178 72.3182 182.178 71.2213 184.006 71.0385C185.834 70.8557 187.114 69.9417 187.845 68.2965C188.576 66.8341 189.673 67.0169 190.221 68.2965C190.953 70.1245 192.232 70.8557 194.06 71.0385C195.888 71.4041 196.071 72.3182 194.609 73.415C193.512 74.5118 192.781 75.4258 193.329 77.0711C193.512 77.8023 193.877 78.7162 193.146 79.2646C192.415 79.8131 191.684 79.0819 190.953 78.7163C190.77 78.5335 190.404 78.5334 190.221 78.3506C189.125 78.3506 188.393 77.985 187.662 78.3506Z" fill="#90A7D1"/>
<path d="M179.619 237.023C179.619 238.12 180.533 237.754 181.081 238.12C182.361 238.668 183.64 239.034 184.92 239.582C185.103 239.582 185.286 239.765 185.286 239.765C187.297 242.142 185.651 246.346 182.544 246.895C182.178 246.895 181.63 246.895 181.264 247.077C178.339 245.798 175.414 244.701 172.855 242.873C171.758 242.142 170.479 242.507 169.382 241.959C171.575 242.142 173.038 241.411 174.318 239.4C175.597 237.754 177.974 237.754 179.619 237.023Z" fill="#F29F80"/>
<path d="M187.662 78.3506C188.393 77.985 189.124 77.985 189.855 78.3506C189.307 81.8239 189.855 85.48 190.404 88.9532C190.404 89.136 190.586 89.5016 190.769 89.5016C193.146 90.2328 194.791 92.4264 197.533 92.4264C203.383 92.2436 209.232 92.4264 214.899 92.4264C213.254 92.4264 211.792 92.6092 210.146 92.6092C201.737 92.6092 193.328 92.6092 185.102 92.6092C183.823 92.6092 182.726 92.4264 181.446 92.4264C186.016 90.5984 188.576 90.05 188.21 84.566C188.027 82.9207 188.21 81.4583 188.21 79.8131C188.21 79.2647 188.21 78.5334 187.662 78.3506Z" fill="#ADBEE9"/>
<path d="M70.4854 123.503C108.325 123.503 146.348 123.503 184.189 123.503C185.103 123.503 186.017 123.503 187.113 123.503C186.017 124.051 184.737 123.869 183.64 123.869C147.994 123.869 112.347 123.869 76.7007 123.869C74.6899 123.869 72.4962 124.051 70.4854 124.234C70.4854 124.051 70.4854 123.686 70.4854 123.503Z" fill="#FF5456"/>
<path d="M159.876 48.9195C160.973 49.6507 162.801 48.9195 163.532 50.7475C163.349 51.6615 163.715 52.3927 164.263 53.1239C164.994 54.2208 164.446 54.5864 163.532 55.1348C162.618 55.1348 162.07 54.7692 161.521 54.038C160.424 51.8443 158.596 51.1131 156.403 50.9303C154.575 50.7475 152.929 50.0163 151.65 48.5539C150.736 47.4571 150.736 46.1774 151.101 44.8978C154.94 44.5322 157.317 46.7259 159.876 48.9195Z" fill="#FCFCFC"/>
<path d="M181.446 247.077C184.006 245.249 186.016 243.239 185.285 239.765C186.93 240.131 188.393 241.228 189.49 242.325C190.586 243.421 190.952 244.884 190.404 246.346C189.855 247.809 188.393 248.357 186.93 248.54C185.102 248.54 183.274 247.809 181.446 247.077Z" fill="#2E2E2E"/>
<path d="M144.52 239.583C145.069 240.131 144.703 240.679 144.52 241.228C144.155 243.239 144.52 244.884 145.8 246.529C146.165 246.895 146.714 247.26 146.165 247.991C144.886 248.174 143.606 248.723 142.327 248.54C140.681 248.357 139.402 247.809 138.853 246.163C138.305 244.518 138.853 243.239 140.133 242.142C141.413 240.862 143.058 240.314 144.52 239.583Z" fill="#2E2E2E"/>
<path d="M153.295 157.139C147.811 157.139 142.51 157.139 137.026 157.139C119.842 157.139 102.476 157.139 85.2926 157.139C81.4538 157.139 77.6149 157.139 73.7761 157.139C72.8621 157.139 71.948 157.139 71.2168 156.773C93.7015 156.773 116.369 156.773 138.854 156.773C143.241 156.773 147.445 156.773 151.833 156.773C152.381 156.773 152.93 156.773 153.295 157.139Z" fill="#A1A1A1"/>
<path d="M94.0662 72.6838C93.7006 72.8666 93.1522 73.2322 92.7866 73.415C91.8726 73.2322 91.507 73.7806 90.7758 74.1462C90.4102 74.5118 89.8618 75.0602 89.3134 74.6946C88.5822 74.329 88.5822 73.5978 88.3994 73.0494C88.3994 71.587 89.1306 70.3074 89.4962 68.845C89.679 68.1137 90.4102 68.4793 90.9586 68.4793C91.507 68.4793 92.0554 68.4793 92.7866 68.4793C93.8834 68.4793 95.3459 68.4794 95.8943 69.759C96.2599 70.8558 94.7974 71.0386 94.249 71.7698C94.4318 72.1354 94.2491 72.3182 94.0662 72.6838Z" fill="#ADBEE9"/>
<path d="M106.497 73.415C106.132 73.2322 105.583 72.8666 105.218 72.6838C105.401 71.9525 104.852 71.7697 104.487 71.4041C103.207 70.3073 103.207 69.3933 104.852 68.8449C107.96 67.5653 110.885 69.5761 110.885 72.6838C110.885 73.415 110.885 74.1461 110.153 74.6945C109.422 75.0601 108.874 74.5118 108.508 74.1462C107.777 73.7805 107.229 73.0494 106.497 73.415Z" fill="#ADBEE9"/>
<path d="M67.7432 223.862C88.5827 223.862 109.605 223.862 130.445 223.862C129.348 224.41 128.251 224.227 127.154 224.227C108.325 224.227 89.6795 224.227 70.8508 224.227C69.9368 224.227 69.0228 224.227 67.926 224.41C68.1088 224.227 67.926 224.044 67.7432 223.862Z" fill="#1D1D1D"/>
<path d="M178.705 156.773C197.717 156.773 216.911 156.773 235.922 156.773C237.385 156.773 238.664 156.773 239.944 156.225C239.761 156.59 239.761 156.773 239.578 157.139C230.073 157.139 220.384 157.139 210.878 157.139C201.19 157.139 191.501 157.139 181.813 157.139C180.899 157.321 179.802 157.504 178.705 156.773Z" fill="#A1A1A1"/>
<path d="M84.013 186.57C81.8194 187.484 79.4429 186.935 77.0665 186.935C74.8729 187.118 72.4964 187.118 70.3028 187.118C68.4748 187.118 67.7435 188.032 67.7435 189.86C67.7435 195.162 67.7435 200.28 67.7435 205.581C67.7435 211.797 67.7435 217.829 67.7435 224.044C67.0123 223.496 67.1951 222.765 67.1951 222.034C67.1951 211.065 67.1951 200.097 67.1951 189.312C67.1951 187.301 67.7436 186.57 69.7544 186.57C74.5073 186.57 79.2601 186.57 84.013 186.57Z" fill="#1D1D1D"/>
<path d="M235.374 103.76C232.997 104.491 230.438 104.491 228.062 103.76C228.062 103.212 228.244 102.663 228.793 102.663C230.804 102.481 232.632 102.481 234.642 102.663C235.191 102.663 235.374 103.212 235.374 103.76Z" fill="#90A7D1"/>
<path d="M105.949 90.5985C106.314 90.2329 106.863 89.6845 107.228 89.3188C107.777 90.2329 108.142 91.3297 108.691 92.2438C108.142 92.2438 107.594 92.2438 107.045 92.2438C106.68 91.6953 105.766 91.5125 105.949 90.5985Z" fill="#CBCBCB"/>
<path d="M188.027 120.395C187.296 120.395 186.564 120.395 185.833 120.395C184.736 119.847 183.64 120.03 182.543 120.03C170.478 120.03 158.413 120.03 146.348 120.03C143.24 120.03 143.24 119.847 143.24 116.739C143.24 110.524 143.24 104.126 143.24 97.9106C143.24 96.4481 143.606 95.8998 145.251 95.8998C168.101 95.8998 190.952 95.8998 213.802 95.8998C215.447 95.8998 216.178 96.631 216.178 98.2762C216.178 104.857 216.178 111.255 216.178 117.836C216.178 119.481 215.447 120.213 213.802 120.213C209.049 120.213 204.296 120.213 199.543 120.213C199.178 118.567 198.812 116.739 198.264 115.094C196.436 110.158 192.597 107.416 187.296 107.416C184.919 107.416 182.726 107.416 180.349 107.599C184.919 110.524 187.478 114.911 188.027 120.395Z" fill="#FDFDFD"/>
<path d="M135.564 99.5557C109.606 100.47 83.4648 100.47 57.5068 99.5557C83.4648 98.6417 109.606 98.6417 135.564 99.5557Z" fill="#EDEDED"/>
<path d="M88.583 111.986C112.51 111.986 131.907 111.823 131.907 111.621C131.907 111.419 112.51 111.255 88.583 111.255C64.6557 111.255 45.2588 111.419 45.2588 111.621C45.2588 111.823 64.6557 111.986 88.583 111.986Z" fill="#F2F2F2"/>
<path d="M101.196 104.126C122.499 104.126 139.768 103.962 139.768 103.76C139.768 103.558 122.499 103.395 101.196 103.395C79.894 103.395 62.625 103.558 62.625 103.76C62.625 103.962 79.894 104.126 101.196 104.126Z" fill="#EDEDED"/>
<path d="M118.013 116.008C102.292 116.008 86.7542 116.008 71.0332 116.008V115.825C86.5714 115.825 102.292 115.825 117.831 115.825C118.013 115.825 118.013 115.825 118.013 116.008Z" fill="#F3F3F3"/>
<path d="M151.65 218.195C149.09 216.915 146.714 215.453 144.155 214.173C144.155 212.71 143.972 211.065 143.241 209.786C142.875 209.054 142.692 208.323 143.241 207.592C144.155 205.947 143.423 204.302 143.241 202.656C142.875 199.549 143.058 196.441 143.058 193.151C143.058 191.871 143.789 191.323 145.069 191.323C149.273 191.14 153.295 191.14 157.499 191.688C163.349 192.419 169.199 192.419 175.048 191.688C176.876 191.505 178.887 191.323 180.715 191.505C180.898 191.505 181.264 191.505 181.446 191.505C183.092 191.323 184.92 191.323 186.748 191.323C188.941 191.505 189.124 191.688 189.307 193.882C189.855 198.269 189.307 202.839 189.307 207.226C187.662 209.42 188.027 211.979 187.479 214.356C185.102 215.635 183.092 217.281 180.532 218.195C179.253 219.109 177.79 219.291 176.328 219.291C169.564 219.291 162.801 219.291 156.037 219.291C154.392 219.291 152.929 218.926 151.65 218.195Z" fill="#C7C7C7"/>
<path d="M189.307 207.226C188.027 208.14 188.393 207.044 188.393 206.312C188.393 202.474 188.393 198.817 188.575 194.979C188.575 192.968 187.844 192.237 185.833 192.237C184.371 192.419 182.909 192.237 181.446 192.237C180.349 191.505 179.801 190.591 180.167 189.312C180.532 188.032 181.629 187.849 182.726 187.849C185.102 187.849 187.296 186.57 189.672 187.301C190.221 187.667 190.952 187.667 191.5 187.667C196.07 187.849 200.458 188.581 205.028 188.581C218.19 188.398 231.351 188.398 244.513 188.581C244.879 188.581 245.244 188.946 245.61 189.129C245.61 189.312 245.61 189.495 245.61 189.677C227.878 189.677 210.146 189.677 192.414 189.677C190.769 189.677 190.221 190.043 190.404 191.871C190.769 195.162 191.135 198.452 190.952 201.742C190.586 203.753 190.403 205.581 189.307 207.226Z" fill="#F29F80"/>
<path d="M189.672 188.032C187.296 188.398 184.919 188.581 182.543 188.946C179.984 189.312 181.446 191.14 181.446 192.237C180.897 192.602 180.166 192.419 179.618 192.419C171.026 192.419 162.252 192.419 153.66 192.419C152.563 192.419 151.466 192.419 150.735 191.323C150.004 190.226 148.907 189.86 147.81 189.677C146.348 189.312 144.703 189.129 143.423 188.215C143.423 187.667 143.423 187.118 143.24 186.57C143.423 185.656 143.606 184.742 143.789 183.828C144.337 182.548 144.703 181.269 145.251 179.989C146.896 177.43 149.638 176.698 152.197 175.602C152.38 175.602 152.563 175.602 152.563 175.602C154.94 177.978 157.499 179.441 160.972 178.161C164.994 178.709 169.198 178.709 173.22 177.795C175.962 177.978 178.704 177.978 180.166 175.053C184.736 174.322 190.038 178.892 189.855 183.645C189.672 183.828 189.672 184.011 189.489 184.193C189.672 184.925 189.855 185.656 190.038 186.387C190.038 187.118 190.22 187.667 189.672 188.032Z" fill="#F0502E"/>
<path d="M151.102 163.72C134.467 163.72 117.832 163.72 101.014 163.72C101.014 163.537 101.014 163.354 101.014 163.171C117.649 163.171 134.284 163.171 151.102 163.171C151.102 163.354 151.102 163.537 151.102 163.72Z" fill="#F2F2F2"/>
<path d="M152.015 175.602C133.918 176.333 116.003 176.15 97.3574 175.784C98.4542 175.053 99.3683 175.236 100.099 175.236C116.369 175.236 132.456 175.236 148.725 175.236C150.005 175.236 151.101 175.053 152.015 175.602Z" fill="#F1F1F1"/>
<path d="M109.605 167.558C123.133 167.558 136.843 167.558 150.37 167.558C150.37 167.741 150.37 168.107 150.37 168.289C136.843 168.107 123.316 168.655 109.605 167.558Z" fill="#ECECEC"/>
<path d="M145.069 180.172C133.186 180.172 121.121 180.172 109.239 180.172C109.239 179.989 109.239 179.989 109.239 179.806C111.067 179.623 113.078 179.258 114.906 179.258C123.681 179.258 132.638 179.258 141.413 179.258C142.692 179.258 144.155 179.075 145.069 180.172Z" fill="#E9E9E9"/>
<path d="M129.165 221.668C110.519 221.668 91.8733 221.668 73.2274 221.668C72.3134 221.668 71.3994 222.034 70.4854 221.302C71.0338 220.571 70.6682 219.657 70.6682 218.926C70.6682 209.969 70.6682 201.194 70.6682 192.237C70.6682 189.86 70.6682 189.677 73.0446 189.677C93.1529 189.677 113.261 189.677 133.552 189.677C134.832 189.677 135.929 189.86 136.294 191.323C136.66 197.538 136.477 203.753 136.477 209.969C136.477 210.883 136.112 211.431 135.563 211.979C130.445 212.162 128.068 215.453 129.165 220.571C129.165 220.937 129.165 221.302 129.165 221.668Z" fill="#EFC9BF"/>
<path d="M151.649 218.195C161.338 218.195 170.844 218.195 180.532 218.195C178.704 220.754 175.962 222.216 173.951 224.41C172.306 226.055 170.478 227.518 168.65 228.98C167.553 229.894 166.456 230.442 165.177 229.528C160.424 226.055 155.671 222.582 151.649 218.195Z" fill="#597086"/>
<path d="M135.381 211.979C135.381 205.216 135.381 198.269 135.381 191.505C135.198 190.774 134.832 190.226 135.563 189.677C137.757 189.495 140.134 189.677 142.327 189.677C143.424 189.677 144.338 190.043 143.972 191.323C142.693 196.075 143.058 201.011 143.79 205.764C143.972 206.495 144.338 207.409 143.79 208.323C144.155 209.603 145.252 210.882 145.069 212.345C145.069 213.076 145.069 213.99 144.155 214.356C141.413 213.076 138.488 212.345 135.381 211.979Z" fill="#FCFCFC"/>
<path d="M163.532 54.952C164.08 53.1239 162.252 52.0271 162.07 50.3819C162.618 50.0163 162.984 50.5647 163.532 50.5647C167.554 55.5004 167.919 61.1673 166.457 67.0169C162.984 79.8131 148.359 85.2972 137.208 78.1679C136.477 77.6195 134.649 77.0711 135.38 75.9743C136.112 74.5118 137.391 76.157 138.122 76.5226C144.52 80.1787 150.736 80.1787 156.951 76.5226C156.768 75.9742 156.768 75.243 157.317 74.8774C159.876 73.2322 161.156 70.3074 163.532 68.4793C165.543 64.0921 166.091 59.522 163.532 54.952Z" fill="#F1F1F1"/>
<path d="M145.8 48.5539C147.079 48.5539 148.725 48.5539 150.187 49.4679C153.112 51.1131 153.66 54.5864 151.101 56.78C148.908 58.608 146.714 60.2532 143.606 60.0704C141.595 59.8876 141.047 59.1565 141.595 57.1456C142.144 55.5004 142.144 54.038 141.595 52.3928C140.499 49.4679 141.047 48.5539 144.337 48.5539C144.703 48.3711 145.069 48.5539 145.8 48.5539Z" fill="#90A7D1"/>
<path d="M139.768 60.2532C142.875 60.2532 144.338 62.8124 142.693 65.3717C141.596 67.1997 140.133 68.8449 138.123 69.9417C137.574 70.3073 136.843 70.673 136.112 69.9417C135.563 69.2105 135.746 68.4793 136.112 67.9309C137.391 66.1029 137.94 64.4576 137.209 62.264C136.843 60.6188 138.671 60.436 139.768 60.2532Z" fill="#90A7D1"/>
<path d="M163.532 68.6622C162.252 72.1354 159.876 74.5118 156.951 76.5226C155.671 76.157 155.306 75.0602 155.306 73.7806C155.306 71.7698 156.402 70.1246 157.134 68.2965C157.499 67.0169 158.962 67.1997 160.241 67.7481C161.155 68.2966 162.252 69.0278 163.532 68.6622Z" fill="#90A7D1"/>
<path d="M105.949 90.5984C106.498 90.964 107.046 91.5124 107.229 92.2437C106.498 92.2437 105.766 92.4264 105.035 92.4264C104.121 92.4264 103.024 92.4264 102.11 92.4264C103.39 91.878 104.67 91.1468 105.949 90.5984Z" fill="#F2F2F2"/>
<path d="M154.392 153.848C154.392 154.031 154.392 154.214 154.392 154.214C134.649 154.031 114.906 153.848 95.3463 154.031C94.2495 154.031 93.8838 153.3 93.701 152.386C93.1526 149.095 93.1527 145.622 93.5183 142.332C93.5183 142.149 93.7011 141.966 93.8839 141.783C96.6259 143.977 99.7335 142.332 102.476 142.88C106.863 143.611 111.25 142.332 115.637 143.246C111.25 142.332 107.046 143.611 102.658 142.88C100.648 142.514 98.8195 143.063 96.8087 143.063C95.5291 143.063 94.7979 142.514 94.0667 141.6C93.5182 139.772 94.0667 138.127 94.9807 136.482C95.8947 134.837 96.9915 133.557 98.454 131.912C96.8087 131.912 95.3463 131.912 94.0667 131.912C93.1526 131.912 92.2386 131.912 91.873 130.815C92.0558 129.718 92.9698 130.267 93.701 130.084C94.9806 130.084 96.0775 130.084 97.1743 130.084C95.1635 130.267 93.1527 130.084 90.7762 130.815C88.5826 131.546 85.8406 130.632 83.8298 130.815C85.475 131.181 87.4858 130.267 89.3138 131.363C90.045 132.643 88.9482 133.191 88.217 133.923C84.9265 136.847 83.4641 140.504 83.2813 144.891C83.2813 145.439 83.6469 145.988 83.4641 146.536C82.5501 149.826 83.2813 151.289 86.5718 152.203C87.4858 152.386 88.5826 152.569 89.4966 153.117C89.6794 153.3 89.6794 153.483 89.8622 153.665C87.6686 154.214 85.475 153.848 83.4641 153.848C81.0877 153.848 78.7113 153.665 76.152 153.848C74.324 153.848 73.5927 153.3 73.5927 151.289C73.5927 144.525 73.5927 137.944 73.5927 131.181C73.5927 125.879 72.3131 126.062 78.7112 126.062C113.261 126.062 147.993 126.062 182.543 126.062C183.64 126.062 184.92 126.062 186.016 126.245C186.016 126.428 186.016 126.428 186.016 126.611C185.102 128.073 183.64 127.707 182.543 127.707C171.027 127.707 159.327 127.707 147.811 127.707C146.897 127.707 145.983 127.707 144.886 127.707C141.047 127.707 140.316 128.621 140.133 132.277C140.133 135.568 140.133 138.675 140.133 141.966C139.95 144.708 140.316 147.45 140.316 150.375C141.047 150.009 141.413 149.095 142.144 149.278C142.875 149.461 143.058 150.009 143.241 150.741C143.606 152.203 144.703 152.751 145.983 152.751C147.993 152.934 150.004 152.934 152.015 152.751C152.746 152.568 153.843 152.386 154.392 153.848Z" fill="#EFC9BF"/>
<path d="M82.3682 144.891C82.3682 139.407 84.379 134.837 89.1319 131.729C89.6803 130.267 90.96 130.632 92.0568 130.815C94.9816 130.815 98.0892 130.815 101.562 130.815C97.9064 133.923 94.7987 136.847 94.2503 141.417C94.4331 141.6 94.4332 141.6 94.4332 141.6L94.2503 141.783C93.3363 145.988 93.702 150.009 95.3472 154.031C93.8848 155.493 92.4223 153.665 90.9599 154.031C90.2287 153.482 90.5943 152.934 90.9599 152.386C92.0567 151.106 92.2395 149.461 92.2395 147.816C92.2395 145.439 92.4224 143.063 92.2395 140.686C92.2395 140.138 92.6051 139.59 91.8739 139.407C91.1427 139.224 90.7772 139.955 90.7772 140.503C90.5943 141.235 90.5943 141.966 90.5943 142.697C90.5943 144.525 90.5943 146.536 90.5943 148.364C90.5943 150.192 89.4975 151.654 87.8522 151.837C86.5726 152.02 85.2931 151.837 84.7447 150.375C84.1963 148.912 84.0134 147.45 85.1102 146.17C85.4758 145.622 86.3898 145.256 86.3898 144.342C85.4758 143.794 84.5618 143.794 83.6478 144.708C83.0994 145.074 82.7338 145.256 82.3682 144.891Z" fill="#FF5456"/>
<path d="M82.3673 144.891C83.4641 143.428 84.561 142.149 86.5719 142.332C87.4859 142.332 88.3999 142.697 88.5827 143.611C88.9483 144.708 88.2171 145.256 87.1203 145.439C85.8406 145.805 84.9267 146.353 84.7439 147.816C84.561 149.278 84.7439 150.741 86.5719 150.923C88.2171 151.106 89.3139 150.192 89.3139 148.547C89.4967 146.17 89.4967 143.794 89.4967 141.6C89.4967 140.686 89.4966 139.772 89.6794 138.676C89.8622 137.762 90.4107 137.213 91.3247 137.213C92.4215 137.213 92.7871 137.944 92.7871 138.858C92.4215 142.88 92.9699 146.902 92.4215 150.923C92.2387 152.203 90.959 152.934 90.5934 154.214C90.2278 154.031 89.8623 154.031 89.4967 153.848C89.3139 153.848 89.3138 153.848 89.131 153.848C88.9482 153.665 88.9483 153.3 88.9483 153.3C91.8731 150.375 91.1419 146.719 91.1419 143.063C91.1419 142.697 91.1419 142.332 91.1419 141.966C91.1419 144.16 91.3247 146.353 91.1419 148.547C90.9591 150.375 90.5934 152.02 88.7654 152.934C87.6686 153.483 84.3782 152.569 83.647 151.472C82.5502 150.192 82.5502 147.633 83.647 145.805C83.8298 145.439 84.1954 145.439 84.1954 145.256C83.2813 145.439 83.4642 147.267 82.1846 146.902C82.3674 146.17 82.3673 145.622 82.3673 144.891Z" fill="#FF5456"/>
<path d="M192.049 160.429C192.78 160.429 193.694 160.246 194.426 160.246C215.631 160.246 236.836 160.246 258.041 160.246C260.234 160.246 260.966 160.795 260.783 162.988C260.6 169.204 260.783 175.419 260.783 181.634C260.783 182.548 261.148 183.828 259.503 183.828C258.224 183.828 256.944 184.376 256.396 182.183C255.116 177.43 252.191 174.139 247.438 172.86C244.331 171.946 241.04 172.677 237.384 172.494C241.223 175.784 244.331 178.892 245.245 183.462C244.513 184.193 243.782 183.828 242.868 183.828C226.599 183.828 210.329 183.828 194.06 183.828C191.501 183.828 191.501 183.645 191.318 181.269C190.952 175.053 191.135 168.655 191.135 162.44C190.952 161.709 191.135 160.977 192.049 160.429Z" fill="#FDFDFD"/>
<path d="M158.962 166.462C157.682 161.891 158.23 160.612 162.252 158.053C163.715 157.139 165.36 156.225 166.457 154.762C166.457 154.579 166.457 154.579 166.457 154.397C166.457 153.117 167.919 152.569 168.285 151.472C168.833 151.289 168.65 150.558 169.016 150.192C169.199 150.009 169.199 149.827 169.381 149.827C170.113 149.827 170.478 150.009 170.844 150.558C170.844 150.74 171.027 150.923 171.027 151.106C174.134 154.214 175.78 158.053 175.597 162.44C175.414 166.096 174.683 169.569 171.392 171.946C168.285 173.408 165.177 173.774 162.069 172.128C161.155 170.3 159.145 168.838 158.962 166.462Z" fill="#F29F80"/>
<path d="M192.049 160.429C192.232 167.376 191.867 174.505 192.232 181.451C192.415 183.462 193.146 183.645 194.792 183.645C211.609 183.645 228.244 183.645 245.062 183.645C245.062 183.828 245.062 184.011 245.062 184.011C244.514 184.376 243.965 184.193 243.417 184.193C226.051 184.193 208.502 184.193 191.135 184.193C190.587 184.193 190.039 184.376 189.49 184.011C188.393 178.892 184.189 177.064 180.167 175.236C181.264 171.032 180.533 166.827 179.985 162.623C179.802 160.612 180.167 160.246 181.995 160.246C185.286 160.429 188.576 160.246 192.049 160.429Z" fill="#EFC9BF"/>
<path d="M154.392 153.848C151.467 153.848 148.725 153.848 145.8 153.848C142.327 153.848 142.327 153.848 141.779 150.558C141.23 151.654 142.327 153.665 140.316 153.665C138.123 153.665 139.036 151.654 139.036 150.375C138.854 147.816 139.036 145.074 139.036 142.514C140.865 140.504 142.875 140.138 145.435 141.235C147.994 142.332 149.091 144.16 149.274 146.902C149.274 147.267 149.274 147.633 149.274 147.998C149.456 148.73 149.639 149.461 150.37 149.461C151.284 149.461 151.65 148.73 151.833 147.998C152.015 146.902 151.833 145.622 152.381 144.525C153.844 141.966 155.854 140.686 158.779 140.503C159.693 140.503 160.607 140.504 161.156 139.407C162.252 137.579 164.629 137.213 166.091 138.675C167.554 140.138 169.199 140.686 171.027 141.052C173.403 141.417 173.952 142.697 173.038 145.439V145.622C172.672 145.439 172.124 145.256 171.758 145.074C171.393 145.074 171.027 145.074 170.661 145.074C168.285 144.708 165.909 144.16 163.532 144.891C162.984 145.074 162.435 144.342 161.887 144.708C158.231 145.988 156.586 148.912 154.94 152.02C154.94 152.386 154.575 153.117 154.392 153.848Z" fill="#F6F6F6"/>
<path d="M189.673 188.032C189.673 187.667 189.856 187.118 189.856 186.753C192.049 187.301 194.06 186.753 196.071 186.753C210.147 186.753 224.405 186.753 238.481 186.753C240.126 186.753 241.589 187.118 243.234 187.118C244.879 187.118 245.61 187.849 245.428 189.312C245.062 189.312 244.879 189.312 244.514 189.312C243.965 189.129 243.417 189.129 242.868 189.129C225.685 189.129 208.502 189.129 191.318 189.129C190.953 189.129 190.587 189.129 190.221 189.312C189.673 188.946 189.856 188.398 189.673 188.032Z" fill="#FB5D2E"/>
<path d="M162.618 170.849C165.36 173.042 168.468 171.945 171.393 171.214C172.672 171.763 173.586 173.042 174.5 173.956C174.5 175.419 173.221 176.516 173.038 177.795C170.296 180.354 164.08 180.537 160.79 178.161C162.07 177.43 161.156 176.516 160.973 175.784C160.607 175.053 160.242 174.322 159.876 173.408C161.156 172.86 161.704 171.763 162.618 170.849Z" fill="#E97C6F"/>
<path d="M189.308 184.01C207.953 184.01 226.417 184.01 245.062 184.01C244.148 184.559 242.869 184.559 241.955 184.559C224.406 184.559 207.04 184.559 189.49 184.559C189.308 184.193 189.308 184.193 189.308 184.01Z" fill="#474747"/>
<path d="M174.317 173.956C172.672 173.774 170.661 173.956 171.209 171.214C173.403 168.655 175.231 165.913 175.779 162.44C175.962 162.623 176.145 162.988 175.962 163.171C175.414 166.827 175.779 170.666 174.317 173.956Z" fill="#273133"/>
<path d="M171.392 144.525C171.575 144.708 171.758 144.708 171.941 144.891C170.661 145.622 169.381 145.805 167.919 145.805C167.005 145.805 165.908 145.805 165.725 147.084C165.543 148.364 165.36 149.826 166.639 150.923C167.736 151.837 168.467 150.923 169.199 150.192C169.016 150.558 169.016 151.106 168.833 151.472C168.285 152.568 167.188 153.117 166.091 152.568C165.177 152.203 164.263 151.289 164.08 150.009C164.08 149.644 164.08 149.095 164.08 148.73C164.08 144.16 164.994 143.428 169.564 144.342C170.113 144.525 170.661 144.525 171.392 144.525Z" fill="#3E4E50"/>
<path d="M174.865 147.633C175.414 148.364 175.962 148.912 176.145 149.826C176.145 151.472 176.51 152.934 177.424 154.214C175.962 154.945 175.414 154.214 175.231 152.751C175.231 151.106 175.048 149.278 174.865 147.633Z" fill="#3E4E50"/>
<path d="M169.565 150.192H169.382H169.199C169.199 149.278 169.016 148.181 170.113 147.816C170.844 147.45 171.393 147.816 171.758 148.547C172.307 149.644 172.124 150.558 171.21 151.289C170.844 150.558 170.479 150.009 169.565 150.192Z" fill="#3E4E50"/>
<path d="M173.22 145.256C173.22 142.697 171.758 141.783 169.382 141.783C167.919 141.783 166.457 141.418 165.726 139.772C165.36 138.858 164.263 138.858 163.349 138.858C162.252 139.041 162.069 139.955 161.887 140.869C161.704 142.332 161.521 142.88 159.876 141.966C157.317 140.504 153.295 143.063 152.929 146.353C152.929 147.084 152.929 147.816 152.929 148.547C152.929 149.827 150.37 151.837 149.273 151.472C148.725 151.289 148.725 150.923 148.542 150.558C148.359 149.461 148.176 148.364 148.176 147.267C147.994 142.88 144.886 140.869 140.682 142.332C140.133 142.514 139.585 142.514 139.036 142.332C139.036 137.944 139.036 133.557 138.854 129.17C138.854 126.976 139.767 126.428 141.778 126.428C156.403 126.428 171.21 126.428 185.834 126.428C186.931 128.073 186.199 129.535 185.285 130.632C184.371 131.729 182.726 131.546 181.446 130.632C179.984 129.718 178.339 129.353 176.694 129.535C173.952 129.718 172.124 130.998 171.027 134.105C170.478 135.751 171.392 139.041 172.855 140.321C175.231 142.514 175.231 142.697 173.22 145.256Z" fill="#FEFEFE"/>
<path d="M183.275 142.697C186.748 142.149 186.748 142.149 189.49 143.611C187.296 143.428 184.92 142.514 182.909 143.977C182.544 143.428 183.092 143.063 183.275 142.697Z" fill="#FEFEFE"/>
<path d="M177.424 154.214C175.231 153.3 175.414 151.655 176.145 149.827C176.876 151.106 177.424 152.203 177.607 153.665C177.607 153.848 177.424 154.031 177.424 154.214Z" fill="#3E4E50"/>
<path d="M178.887 147.633C178.887 147.084 179.069 146.536 179.618 146.536C180.349 146.536 180.349 147.084 180.349 147.633C180.349 148.181 180.166 148.547 179.801 148.547C179.252 148.73 178.887 148.181 178.887 147.633Z" fill="#FEFEFE"/>
<path d="M162.618 170.849C163.349 173.225 163.349 173.225 160.059 173.591C159.693 171.946 160.242 170.118 158.962 168.472C158.414 167.924 158.596 167.01 159.145 166.462C160.059 168.107 160.973 169.752 162.618 170.849Z" fill="#273133"/>
<path d="M162.069 144.525C162.435 144.342 162.983 144.16 163.349 144.16C164.629 145.439 164.08 147.084 164.08 148.547C164.08 150.558 164.446 151.837 166.091 152.934C166.822 153.482 167.005 154.031 166.639 154.762C163.349 153.665 162.618 152.568 162.618 149.278C162.435 147.633 162.801 145.988 162.069 144.525Z" fill="#3E4E50"/>
<path d="M265.719 143.428C262.977 145.988 260.418 148.364 257.676 150.923C256.944 151.655 256.213 151.106 255.665 150.741C253.106 148.547 250.364 146.353 248.17 143.794C250.729 145.074 252.923 147.085 254.934 148.913C256.213 150.009 256.944 150.009 258.224 148.913C260.6 146.719 262.794 144.708 265.719 143.428Z" fill="#F6F6F6"/>
<path d="M246.89 154.579C247.621 152.751 248.9 151.654 250.546 150.74C249.997 152.569 248.535 153.665 246.89 154.579Z" fill="#ECECEC"/>
<path d="M266.45 154.762C264.987 153.3 263.525 151.837 262.062 150.375C264.073 151.472 265.17 153.117 266.45 154.762Z" fill="#F4F4F4"/>
<path d="M143.789 208.14C141.413 204.119 142.327 199.732 142.693 195.527C143.241 189.677 143.424 189.677 137.391 189.86C136.66 189.86 136.112 189.86 135.38 189.86C134.832 190.043 134.284 190.043 133.918 190.043C113.079 190.043 92.4219 190.043 71.5824 190.043C71.2168 190.043 70.6683 190.043 70.3027 189.677C71.3995 189.129 72.4963 189.312 73.5932 189.312C95.8951 189.312 118.197 189.312 140.499 189.312C141.413 189.312 142.693 190.043 143.424 188.398C145.983 187.849 148.359 189.129 150.919 188.946C151.65 188.946 151.833 189.495 151.833 190.226C151.467 192.237 152.747 192.419 154.209 192.237C163.437 192.348 172.489 192.237 181.447 192.237C180.533 192.785 179.619 192.602 178.705 192.785C170.479 192.785 162.252 192.785 153.844 192.785C151.284 192.785 148.542 192.237 145.983 192.237C144.338 192.237 143.789 192.968 143.607 194.613C143.241 198.452 144.521 202.291 144.521 206.13C144.521 206.861 145.069 207.958 143.789 208.14Z" fill="#F29F80"/>
<path d="M70.4855 189.677C83.2817 189.677 96.0779 189.677 108.874 189.677C117.831 189.677 126.606 189.677 135.563 189.677C135.563 190.226 135.563 190.774 135.563 191.323C134.832 189.86 133.37 190.043 132.09 190.043C113.627 190.043 95.3466 190.043 76.8836 190.043C75.7868 190.043 74.8728 190.043 73.776 190.043C71.7652 189.86 71.034 190.592 71.034 192.785C71.2168 201.194 71.034 209.603 71.034 218.012C71.034 219.109 71.2167 220.206 70.4855 221.302C70.4855 215.27 70.3027 209.055 70.3027 203.022C70.3027 198.452 70.3027 194.065 70.4855 189.677Z" fill="#E3E3E3"/>
<path d="M64.0879 182.731C65.5503 177.613 73.7765 169.204 80.1746 168.29C78.1638 169.386 76.7013 170.118 75.2389 171.032C74.3249 171.58 73.9593 172.128 74.5077 173.408C75.4217 174.87 75.2389 176.333 73.9593 177.43C72.6797 178.526 71.2172 178.526 69.9376 177.43C68.8408 176.516 68.2924 177.064 67.5612 177.978C66.6472 179.44 65.5503 180.903 64.0879 182.731Z" fill="#FBFBFB"/>
<path d="M230.438 116.008C231.9 115.277 233.18 115.46 234.642 115.825C233.18 116.739 232.083 116.556 230.438 116.008Z" fill="#EEEEEE"/>
<path d="M230.803 112.535C231.9 111.986 232.996 111.986 234.642 112.535C233.179 113.083 232.082 112.9 230.803 112.535Z" fill="#EEEEEE"/>
<path d="M234.276 120.761C233.179 121.492 232.082 121.309 230.985 120.944C232.082 120.212 233.179 120.395 234.276 120.761Z" fill="#ECECEC"/>
<path d="M99.9164 73.9634C104.304 73.9634 107.96 77.6194 108.143 82.0067C108.143 86.2112 104.304 89.8672 99.9164 89.8672C95.1636 89.8672 91.6903 86.394 91.6903 81.8239C91.5075 77.4367 95.712 73.415 99.9164 73.9634Z" fill="#ADBEE9"/>
<path d="M166.457 207.227C164.812 207.227 163.349 205.947 163.532 204.484C163.715 202.839 164.629 201.925 166.274 201.925C167.919 201.925 168.833 203.022 168.651 204.667C168.651 206.13 167.919 207.044 166.457 207.227Z" fill="#FBFBFB"/>
<path d="M190.222 189.129C190.404 188.581 190.953 188.398 191.501 188.398C198.631 189.129 205.577 188.581 212.706 188.763C222.395 188.946 231.901 188.763 241.589 188.763C242.686 188.763 243.6 188.581 244.514 189.129C231.901 189.129 219.287 189.129 206.674 189.129C201.19 189.312 195.706 189.312 190.222 189.129Z" fill="#FB5D2E"/>
<path d="M129.348 196.624C112.165 197.172 95.1639 197.172 77.9805 196.624C95.1639 195.71 112.347 195.893 129.348 196.624Z" fill="#F1F1F1"/>
<path d="M119.842 208.689C104.852 209.054 89.6793 209.42 74.6895 208.689C89.6793 207.775 104.669 207.958 119.842 208.689Z" fill="#F1F1F1"/>
<path d="M83.4639 201.011C97.9053 200.097 112.347 200.097 126.788 201.011C112.347 201.011 97.9053 201.011 83.4639 201.011Z" fill="#ECECEC"/>
<path d="M85.1094 212.528C95.7119 212.528 106.497 212.528 117.1 212.528C117.1 212.711 117.1 212.893 117.1 213.076C106.497 213.442 95.7119 213.442 85.1094 213.076C85.1094 212.893 85.1094 212.711 85.1094 212.528Z" fill="#ECECEC"/>
<path d="M103.389 204.119C114.899 204.119 124.229 204.037 124.229 203.936C124.229 203.835 114.899 203.753 103.389 203.753C91.8799 203.753 82.5498 203.835 82.5498 203.936C82.5498 204.037 91.8799 204.119 103.389 204.119Z" fill="#EBEBEB"/>
<path d="M82.3682 146.719C83.2822 145.439 84.0134 143.794 85.8415 143.246C86.5727 143.063 87.3039 142.697 87.6695 143.611C88.0351 144.525 87.1211 144.708 86.5727 144.891C85.6587 145.256 84.7447 145.622 84.3791 146.536C83.6478 147.998 83.6479 149.461 84.7447 150.923C85.4759 152.02 86.7555 152.386 88.0351 152.203C89.6803 151.837 90.4115 150.558 90.5943 149.095C90.7771 148.181 90.5943 147.267 90.5943 146.171C90.5943 144.342 90.5943 142.514 90.5943 140.686C90.5943 139.955 90.2287 138.676 91.3255 138.676C92.4224 138.676 92.0567 139.955 91.8739 140.686C91.6911 143.246 92.4224 145.805 92.0568 148.364C91.6912 150.558 90.96 152.386 89.3148 153.848C87.4867 153.483 85.6587 153.117 83.8307 152.386C82.5511 152.02 82.7338 150.558 82.551 149.644C82.3682 148.547 82.3682 147.633 82.3682 146.719Z" fill="#FF5456"/>
<path d="M103.207 130.632C112.713 130.632 122.036 130.632 131.541 130.632C131.541 130.815 131.541 130.998 131.541 130.998C122.036 130.998 112.713 130.998 103.207 130.998C103.207 130.998 103.207 130.815 103.207 130.632Z" fill="#F1F1F1"/>
<path d="M94.0664 141.783C94.0664 141.6 94.0664 141.6 94.0664 141.417C95.5288 142.697 97.3569 142.514 99.0021 142.514C105.4 142.514 111.798 142.514 118.196 142.88C116.368 144.342 114.357 143.428 112.347 143.428C107.045 143.611 101.744 143.428 96.4428 143.611C95.1632 143.611 94.2492 143.428 94.0664 141.783Z" fill="#ECECEC"/>
<path d="M92.0566 130.815C91.1426 131.181 90.0457 131.546 89.1317 131.729C86.0241 130.632 82.7336 131.729 79.626 130.449C86.5725 130.267 93.7018 130.084 100.648 129.718C97.7234 130.815 94.7987 129.901 92.0566 130.815Z" fill="#E2E2E2"/>
<path d="M128.982 135.202C119.842 135.202 110.519 135.202 101.379 135.202V135.019C110.519 135.019 119.842 135.019 128.982 135.019V135.202Z" fill="#F4F4F4"/>
<path d="M166.639 154.579C162.618 152.02 163.532 147.816 163.532 143.977C166.274 143.246 168.833 143.063 171.392 144.525C169.93 145.074 168.285 144.525 166.639 144.891C165.36 145.074 164.811 145.622 164.811 146.902C164.811 147.633 164.811 148.181 164.811 148.913C164.994 151.655 166.091 152.386 168.833 151.655C168.65 152.934 167.736 153.848 166.639 154.579Z" fill="#3E4E50"/>
<path d="M169.564 150.192C169.93 149.644 169.93 148.547 170.661 148.912C171.758 149.278 171.21 150.375 171.392 151.106C170.661 151.106 170.113 150.74 169.564 150.192Z" fill="#3E4E50"/>
<path d="M96.4434 76.8882C98.637 80.1786 101.745 82.3723 105.401 84.0175C101.379 84.3831 97.5402 81.0926 96.4434 76.8882Z" fill="#F8F8F8"/>
</svg>
