<svg width="316" height="287" viewBox="0 0 316 287" fill="none" xmlns="http://www.w3.org/2000/svg">
<circle cx="92" cy="22" r="22" fill="#F7B9A9"/>
<circle cx="297.5" cy="120.5" r="18.5" fill="#F7B9A9"/>
<circle cx="260" cy="154" r="5" fill="#EB969A"/>
<circle cx="246.5" cy="13.5" r="4.5" fill="#EB969A"/>
<circle cx="202.5" cy="257.5" r="4.5" fill="#EB969A"/>
<circle cx="9.5" cy="94.5" r="4.5" fill="#EB969A"/>
<circle cx="39.5" cy="127.5" r="10.5" fill="#EB969A"/>
<circle cx="95" cy="236" r="9" fill="#EB969A"/>
<path d="M55 61.5C55 70.0604 48.0604 77 39.5 77C30.9396 77 24 70.0604 24 61.5C24 52.9396 30.9396 46 39.5 46C48.0604 46 55 52.9396 55 61.5ZM32.215 61.5C32.215 65.5234 35.4766 68.785 39.5 68.785C43.5234 68.785 46.785 65.5234 46.785 61.5C46.785 57.4766 43.5234 54.215 39.5 54.215C35.4766 54.215 32.215 57.4766 32.215 61.5Z" fill="#C49FB6"/>
<path d="M74 203.5C74 215.374 64.3741 225 52.5 225C40.6259 225 31 215.374 31 203.5C31 191.626 40.6259 182 52.5 182C64.3741 182 74 191.626 74 203.5ZM41.75 203.5C41.75 209.437 46.5629 214.25 52.5 214.25C58.4371 214.25 63.25 209.437 63.25 203.5C63.25 197.563 58.4371 192.75 52.5 192.75C46.5629 192.75 41.75 197.563 41.75 203.5Z" fill="#C49FB6"/>
<path d="M271 210.5C271 218.508 264.508 225 256.5 225C248.492 225 242 218.508 242 210.5C242 202.492 248.492 196 256.5 196C264.508 196 271 202.492 271 210.5ZM249.25 210.5C249.25 214.504 252.496 217.75 256.5 217.75C260.504 217.75 263.75 214.504 263.75 210.5C263.75 206.496 260.504 203.25 256.5 203.25C252.496 203.25 249.25 206.496 249.25 210.5Z" fill="#C49FB6"/>
<path d="M156 233C156 239.075 151.075 244 145 244C138.925 244 134 239.075 134 233C134 226.925 138.925 222 145 222C151.075 222 156 226.925 156 233ZM139.06 233C139.06 236.281 141.719 238.94 145 238.94C148.281 238.94 150.94 236.281 150.94 233C150.94 229.719 148.281 227.06 145 227.06C141.719 227.06 139.06 229.719 139.06 233Z" fill="#F0CECE"/>
<path d="M195 11C195 16.5228 190.523 21 185 21C179.477 21 175 16.5228 175 11C175 5.47715 179.477 1 185 1C190.523 1 195 5.47715 195 11ZM180.3 11C180.3 13.5957 182.404 15.7 185 15.7C187.596 15.7 189.7 13.5957 189.7 11C189.7 8.40426 187.596 6.3 185 6.3C182.404 6.3 180.3 8.40426 180.3 11Z" fill="#F7B9A9"/>
<path d="M309 184.5C309 188.09 306.09 191 302.5 191C298.91 191 296 188.09 296 184.5C296 180.91 298.91 178 302.5 178C306.09 178 309 180.91 309 184.5ZM299.25 184.5C299.25 186.295 300.705 187.75 302.5 187.75C304.295 187.75 305.75 186.295 305.75 184.5C305.75 182.705 304.295 181.25 302.5 181.25C300.705 181.25 299.25 182.705 299.25 184.5Z" fill="#F7B9A9"/>
<path d="M123 281.5C123 284.538 120.538 287 117.5 287C114.462 287 112 284.538 112 281.5C112 278.462 114.462 276 117.5 276C120.538 276 123 278.462 123 281.5ZM114.75 281.5C114.75 283.019 115.981 284.25 117.5 284.25C119.019 284.25 120.25 283.019 120.25 281.5C120.25 279.981 119.019 278.75 117.5 278.75C115.981 278.75 114.75 279.981 114.75 281.5Z" fill="#F2BAB5"/>
<path d="M10 156C10 158.761 7.76142 161 5 161C2.23858 161 0 158.761 0 156C0 153.239 2.23858 151 5 151C7.76142 151 10 153.239 10 156ZM2.5 156C2.5 157.381 3.61929 158.5 5 158.5C6.38071 158.5 7.5 157.381 7.5 156C7.5 154.619 6.38071 153.5 5 153.5C3.61929 153.5 2.5 154.619 2.5 156Z" fill="#F2BAB5"/>
<path d="M281 64.5C281 76.3741 271.374 86 259.5 86C247.626 86 238 76.3741 238 64.5C238 52.6259 247.626 43 259.5 43C271.374 43 281 52.6259 281 64.5ZM249.395 64.5C249.395 70.0808 253.919 74.605 259.5 74.605C265.081 74.605 269.605 70.0808 269.605 64.5C269.605 58.9192 265.081 54.395 259.5 54.395C253.919 54.395 249.395 58.9192 249.395 64.5Z" fill="#C49FB6"/>
<path d="M135.141 110.413C135.27 110.993 135.27 111.457 135.398 112.037C135.656 117.027 137.588 121.553 139.778 126.078C136.171 127.123 132.564 126.194 128.957 125.962C125.479 125.73 123.933 124.106 123.676 121.089C123.161 116.563 122.903 111.921 120.842 107.628C125.35 109.717 130.503 108.904 135.141 110.413Z" fill="#FDD5AB"/>
<path d="M150.918 88.0275C140.19 91.8833 129.342 91.8833 118.614 88.0275C118.855 85.2427 119.096 82.565 119.338 79.7803C129.583 80.9584 139.828 80.9584 150.074 79.7803C150.556 82.4579 149.23 85.3498 150.918 88.0275Z" fill="#FDD5AB"/>
<path d="M121.26 106.899C119.817 100.598 119.095 94.0591 118.614 87.6392C119.095 86.807 119.937 86.2126 120.899 86.5692C129.918 89.3036 139.056 88.2336 148.315 87.4014C149.157 87.2825 150.119 87.1636 150.961 87.6392C151.682 89.3036 149.638 91.4435 151.923 92.8702C152.404 94.6535 151.201 95.3668 149.999 95.7234C142.904 98.2201 137.373 102.381 135.329 109.99C135.208 110.228 134.848 110.347 134.607 110.465C129.437 111.416 124.747 111.416 121.26 106.899Z" fill="#F04B37"/>
<path d="M119.451 78.7085C117.662 77.88 115.753 76.8148 116.588 74.4475C117.543 71.9619 117.9 68.7661 121.121 68.0559C130.066 65.9254 139.131 65.807 148.076 68.0559C151.177 68.8844 152.131 71.9619 152.966 74.6842C153.801 77.1698 151.535 77.88 149.865 78.8269C144.379 83.0879 124.699 83.0879 119.451 78.7085Z" fill="#3A3A3A"/>
<path d="M163.911 94.1618C163.911 104.033 163.911 113.904 163.911 123.775C163.911 128.488 160.141 132.076 155.462 131.828C151.46 131.613 148.104 128.074 148.087 124.056C148.054 120.749 149.096 117.79 150.749 114.979C153.511 110.283 156.206 105.554 158.917 100.825C159.231 100.263 159.777 99.8001 159.744 99.0726C160.025 99.0561 160.075 98.7915 160.191 98.6096C160.835 97.5018 161.464 96.394 162.109 95.3027C162.472 94.5917 163.018 94.0792 163.911 94.1618Z" fill="#FAA037"/>
<path d="M177.768 84.2411C177.751 94.6744 177.784 105.108 177.751 115.541C177.652 115.558 177.553 115.591 177.453 115.607C174.262 110.101 171.071 104.595 167.88 99.0892C168.194 99.0065 168.244 98.7254 168.376 98.4939C170.873 94.1784 173.353 89.8629 175.85 85.5308C176.263 84.7702 176.792 84.175 177.768 84.2411Z" fill="#FAA037"/>
<path d="M178.759 135.779C178.759 135.25 179.222 134.804 179.751 134.804C180.28 134.804 180.727 135.267 180.727 135.796C180.727 136.325 180.264 136.771 179.735 136.771C179.189 136.771 178.743 136.308 178.759 135.779Z" fill="#F57828"/>
<path d="M166.358 115.938C165.598 115.938 164.903 115.243 164.887 114.466C164.887 113.673 165.614 112.962 166.391 112.978C167.152 112.995 167.846 113.706 167.83 114.483C167.83 115.26 167.135 115.938 166.358 115.938Z" fill="#D65A0A"/>
<path d="M184.183 121.89C183.422 121.89 182.727 121.196 182.711 120.419C182.711 119.625 183.438 118.914 184.216 118.931C184.976 118.947 185.671 119.658 185.654 120.435C185.654 121.212 184.943 121.89 184.183 121.89Z" fill="#D65A0A"/>
<path d="M170.31 128.851C171.071 128.835 171.782 129.513 171.798 130.29C171.815 131.084 171.104 131.811 170.31 131.795C169.549 131.795 168.855 131.1 168.855 130.323C168.855 129.562 169.549 128.868 170.31 128.851Z" fill="#D65A0A"/>
<path d="M181.703 105.058C181.686 105.604 181.256 106.034 180.71 106.017C180.165 106.001 179.735 105.571 179.751 105.009C179.768 104.463 180.198 104.033 180.744 104.05C181.306 104.083 181.719 104.513 181.703 105.058Z" fill="#D65A0A"/>
<path d="M189.606 114.466C189.573 114.747 189.424 114.929 189.127 114.929C188.846 114.929 188.68 114.731 188.68 114.45C188.697 114.202 188.862 114.036 189.11 114.02C189.408 114.003 189.557 114.185 189.606 114.466Z" fill="#D65A0A"/>
<path d="M175.287 124.85C175.006 124.817 174.824 124.668 174.824 124.387C174.824 124.122 174.99 123.957 175.238 123.941C175.519 123.924 175.717 124.089 175.734 124.37C175.75 124.652 175.568 124.8 175.287 124.85Z" fill="#D65A0A"/>
<path d="M146.071 109.985C146.071 111.077 145.211 111.953 144.12 111.97C143.012 111.986 142.102 111.077 142.119 109.969C142.135 108.878 143.012 108.001 144.103 108.018C145.194 108.034 146.071 108.911 146.071 109.985Z" fill="#F57828"/>
<path d="M142.119 116.913C142.136 117.476 141.722 117.906 141.16 117.922C140.614 117.939 140.168 117.525 140.151 116.963C140.135 116.401 140.548 115.971 141.11 115.954C141.656 115.954 142.102 116.368 142.119 116.913Z" fill="#F57828"/>
<path d="M157.976 127.843C156.884 127.859 155.991 126.983 155.975 125.908C155.958 124.801 156.851 123.891 157.959 123.891C159.05 123.891 159.927 124.767 159.927 125.859C159.943 126.95 159.067 127.843 157.976 127.843Z" fill="#F57828"/>
<path d="M155.974 118.914C155.974 119.476 155.561 119.89 154.999 119.906C154.453 119.906 154.023 119.493 154.007 118.931C154.007 118.368 154.42 117.955 154.982 117.939C155.528 117.939 155.958 118.369 155.974 118.914Z" fill="#F57828"/>
<path d="M163.911 94.1619C164.688 94.1454 165.25 94.5257 165.631 95.1705C166.391 96.4602 167.119 97.783 167.863 99.0892C168.326 99.2215 168.541 99.5853 168.756 99.9656C171.451 104.645 174.129 109.341 176.858 114.003C176.973 114.185 177.04 114.533 177.271 114.483C177.552 114.417 177.436 114.053 177.436 113.822C177.436 104.38 177.436 94.9556 177.453 85.5143C177.453 85.0844 177.321 84.5884 177.751 84.2577C178.643 84.2412 179.189 84.7538 179.602 85.4813C182.364 90.2763 185.125 95.0713 187.886 99.8664C189.06 101.9 190.251 103.934 191.408 105.984C196.699 115.326 191.805 126.867 181.471 129.414C180.743 129.596 180.016 129.744 179.272 129.761C178.759 129.777 178.495 130.009 178.263 130.488C175.866 135.482 171.947 138.574 166.49 139.533C159.529 140.773 152.568 137.102 149.559 130.67C149.245 129.992 148.848 129.794 148.17 129.728C141.474 129.116 135.472 123.478 134.43 116.864C134.413 116.748 134.413 116.616 134.397 116.5C134.347 116.401 134.331 116.285 134.43 116.236C134.595 116.169 134.711 116.269 134.777 116.401C135.009 116.781 135.141 117.195 135.356 117.575C136.778 120.154 138.993 121.51 141.87 121.626C146.136 121.791 149.658 118.335 149.675 114.053C149.691 107.72 149.675 101.371 149.675 95.0383C149.675 91.814 149.675 88.5898 149.675 85.3821C149.675 85.0018 149.592 84.5884 149.972 84.3073C150.7 84.2908 151.279 84.6049 151.626 85.2167C154.305 89.8464 156.967 94.4926 159.629 99.1388C160.025 99.4199 159.86 99.7506 159.678 100.065C158.455 102.148 157.264 104.248 156.057 106.331C154.123 109.655 152.221 112.978 150.32 116.318C148.964 118.699 148.302 121.279 148.302 124.023C148.319 127.992 151.411 131.266 155.396 131.58C159.265 131.877 162.787 129.066 163.415 125.164C163.498 124.652 163.531 124.139 163.531 123.627C163.531 114.251 163.531 104.876 163.531 95.5012C163.597 94.9887 163.465 94.4926 163.911 94.1619Z" fill="#F57828"/>
<path d="M150.055 84.2411C150.055 94.1123 150.055 103.983 150.055 113.855C150.055 118.567 146.269 122.238 141.589 121.874C138.332 121.626 136.034 119.873 134.744 116.847C134.678 116.699 134.612 116.55 134.546 116.417C134.546 116.417 134.513 116.417 134.496 116.434C134.48 116.45 134.463 116.467 134.463 116.484C134.033 114.384 134.182 112.3 134.661 110.233C135.009 108.696 135.637 107.257 136.414 105.885C140.333 99.0726 144.251 92.2769 148.187 85.4647C148.567 84.7372 149.113 84.175 150.055 84.2411Z" fill="#FAA037"/>
<path d="M141.488 129.475C145.647 130.659 150.059 130.527 153.84 133.291C155.352 134.475 156.235 135.66 156.487 137.502C155.478 138.291 154.344 138.949 153.336 139.739C148.672 143.029 144.135 143.029 140.102 139.344C138.211 137.633 136.699 135.528 134.556 134.08C133.295 133.159 132.665 131.843 133.421 130.264C134.178 128.554 135.69 128.685 137.077 128.948C138.589 129.08 139.85 130.791 141.488 129.475Z" fill="#7FBD3F"/>
<path d="M144.791 105.858C144.791 106.729 144.104 107.429 143.233 107.442C142.348 107.455 141.622 106.729 141.635 105.844C141.648 104.973 142.348 104.273 143.219 104.286C144.091 104.3 144.791 104.999 144.791 105.858Z" fill="#F57828"/>
<path d="M141.634 112.676C141.652 113.277 141.21 113.736 140.609 113.754C140.026 113.771 139.549 113.33 139.531 112.729C139.514 112.128 139.955 111.668 140.556 111.65C141.139 111.65 141.617 112.092 141.634 112.676Z" fill="#F57828"/>
<path d="M168.461 114.806C167.646 114.806 166.901 114.066 166.883 113.237C166.883 112.391 167.663 111.633 168.497 111.651C169.312 111.668 170.057 112.426 170.039 113.255C170.039 114.084 169.294 114.806 168.461 114.806Z" fill="#D65A0A"/>
<path d="M185.294 120.066C184.478 120.066 183.734 119.573 183.716 119.02C183.716 118.456 184.496 117.951 185.329 117.963C186.145 117.974 186.889 118.48 186.872 119.032C186.872 119.585 186.109 120.066 185.294 120.066Z" fill="#D65A0A"/>
<path d="M172.131 127.431C172.675 127.413 173.183 128.14 173.195 128.973C173.207 129.824 172.699 130.604 172.131 130.586C171.588 130.586 171.091 129.842 171.091 129.009C171.091 128.193 171.588 127.449 172.131 127.431Z" fill="#D65A0A"/>
<path d="M176.887 123.223C176.562 123.184 176.352 123.012 176.352 122.688C176.352 122.382 176.543 122.191 176.829 122.172C177.154 122.153 177.383 122.344 177.402 122.669C177.421 122.993 177.211 123.165 176.887 123.223Z" fill="#D65A0A"/>
<path d="M101.436 93.8514C101.436 76.8245 101.55 59.7976 101.55 42.7707C101.55 36.257 102.807 35 109.207 35C140.289 35 171.372 35 202.34 35C208.397 35 209.654 36.257 209.654 42.085C209.654 49.8557 209.654 57.7406 209.654 65.5113C205.883 65.8541 202.226 66.1969 198.455 66.5398C198.455 61.3974 198.455 56.2551 198.455 51.227C198.455 46.1989 197.427 45.1705 192.513 45.1705C167.944 45.1705 143.489 45.1705 118.92 45.1705C113.892 45.1705 112.863 46.1989 112.863 51.1127C112.863 94.7656 112.863 138.418 112.863 182.071C112.863 186.642 114.006 187.671 118.806 187.785C143.375 187.785 167.83 187.785 192.399 187.785C197.655 187.785 198.455 186.871 198.455 181.5C198.455 176.815 198.455 172.129 198.569 167.444C201.312 168.016 204.055 168.701 206.797 169.158C209.083 169.501 209.654 170.758 209.654 172.929C209.54 177.843 209.768 182.871 209.768 187.785C209.768 194.984 209.654 202.298 209.654 209.497C209.654 213.497 207.94 215.211 204.055 215.097C199.369 214.982 194.684 215.211 189.999 215.211C166.573 215.211 143.146 215.211 119.72 215.211C115.835 215.211 112.064 215.097 108.178 215.097C103.036 215.097 101.665 213.725 101.665 208.583C101.665 187.899 101.665 167.216 101.665 146.532C101.665 144.932 101.55 143.447 101.436 141.847C101.436 125.734 101.436 109.85 101.436 93.8514ZM155.488 196.241C151.945 196.241 148.746 199.212 148.746 202.412C148.86 205.726 152.288 209.04 155.716 209.154C159.259 209.269 162.344 206.069 162.23 202.298C162.344 198.87 159.145 196.241 155.488 196.241Z" fill="#131418"/>
<path d="M198.455 66.5397C202.226 66.1969 205.883 65.8541 209.654 65.5113C215.71 64.4828 221.767 64.8256 227.938 65.5113C229.766 65.7398 231.595 65.8541 233.423 66.4255C238.68 68.1396 240.737 71.9106 237.537 76.1388C233.08 81.9668 233.194 86.0807 239.251 90.3089C241.308 91.7944 240.737 94.0799 239.708 96.1368C237.651 100.251 235.023 103.907 232.395 107.564C231.023 109.507 231.023 111.107 233.08 112.135C241.879 116.478 241.308 123.334 239.137 131.219C237.651 136.59 235.823 141.732 236.851 147.789C237.651 152.703 234.109 157.388 231.366 161.73C227.367 168.016 222.91 173.844 217.653 179.1C217.31 175.9 216.053 172.815 215.482 169.615C215.025 166.987 216.168 163.559 214.339 161.845C212.282 159.788 209.083 162.188 206.226 161.959C201.655 161.502 197.312 159.331 196.512 155.788C195.598 151.674 198.455 149.389 201.426 147.218C206.111 143.904 210.682 140.475 215.368 137.161C212.168 136.476 209.311 136.247 206.34 136.704C200.283 137.504 194.113 137.961 188.056 136.59C183.485 135.562 182.571 131.676 185.771 128.248C188.97 124.82 193.084 122.877 197.198 121.049C202.797 118.649 208.397 116.249 214.796 113.507C207.483 112.478 200.969 111.907 194.57 110.535C191.027 109.85 187.37 110.65 184.056 108.936C182.228 108.021 180.628 106.764 180.628 104.479C180.514 102.079 182 100.936 184.171 100.365C186.228 99.6794 188.17 98.8794 190.113 98.0795C199.826 94.3085 209.54 90.4231 219.253 86.6521C212.625 86.4235 206.34 85.6236 200.169 84.138C193.427 82.5382 185.771 82.4239 182.114 74.7675C184.056 72.0249 186.685 70.3108 189.884 69.3966C192.627 68.4824 195.598 67.4539 198.455 66.5397Z" fill="#F29F80"/>
<path d="M191.37 226.067C191.485 227.21 191.485 228.353 191.599 229.495C192.17 237.037 192.17 237.037 185.085 240.466C172.172 246.636 158.916 251.55 144.404 251.665C138.004 251.779 131.719 250.407 126.005 247.322C118.463 243.322 117.092 240.808 118.235 232.466C118.463 230.409 118.806 228.238 119.035 226.181C143.032 226.067 167.144 226.067 191.37 226.067Z" fill="#F29F80"/>
<path d="M183 74.8818C186.542 82.5382 194.313 82.6525 201.055 84.2523C207.226 85.7379 213.511 86.5378 220.139 86.7664C210.426 90.5374 200.712 94.4227 190.999 98.1938C189.056 98.9937 187.114 99.9079 185.057 100.479C182.886 101.165 181.514 102.193 181.514 104.593C181.629 106.879 183.228 108.136 184.942 109.05C188.256 110.764 191.913 109.85 195.456 110.65C201.855 112.021 208.369 112.592 215.682 113.621C209.283 116.363 203.683 118.763 198.084 121.163C193.856 122.991 189.856 125.048 186.657 128.362C183.457 131.791 184.257 135.676 188.942 136.704C194.999 138.076 201.169 137.733 207.226 136.819C210.197 136.362 213.054 136.704 216.254 137.276C211.568 140.59 206.997 144.018 202.312 147.332C199.341 149.503 196.484 151.789 197.398 155.902C198.198 159.559 202.541 161.73 207.112 162.073C209.969 162.302 213.168 159.902 215.225 161.959C216.939 163.673 215.911 167.101 216.368 169.73C216.939 172.929 218.196 176.015 218.539 179.214C216.482 182.414 213.625 184.928 210.883 187.556C210.769 182.643 210.654 177.615 210.769 172.701C210.769 170.53 210.197 169.273 207.912 168.93C205.169 168.473 202.427 167.787 199.684 167.216C196.37 165.844 193.056 164.702 189.971 163.102C182.771 159.445 182.428 156.131 189.056 151.56C192.142 149.389 195.57 147.56 198.77 145.503C199.57 145.046 200.484 144.246 200.141 143.104C199.798 142.075 198.655 142.418 197.855 142.418C194.884 142.189 191.913 142.075 188.942 141.618C180.714 140.475 175.915 136.819 175.801 131.333C177.515 126.762 182.2 125.048 185.057 121.506C189.514 121.049 193.285 118.42 197.513 117.392C198.541 117.163 200.141 116.821 199.912 115.449C199.684 114.078 198.198 114.421 197.056 114.307C190.542 113.735 184.028 113.278 177.972 110.878C174.544 109.621 171.344 107.907 172.372 103.222H172.258C172.601 102.879 173.058 102.651 173.401 102.308C174.086 101.736 174.886 101.165 175.572 100.594C175.915 100.251 176.258 100.022 176.6 99.6794C183.228 96.4797 189.856 93.3943 196.827 91.1088C198.198 90.6517 200.255 90.3089 200.027 88.9376C199.798 87.3377 197.741 86.9949 196.141 86.8807C191.113 86.4236 186.542 84.8237 182.543 81.624C181.971 79.7956 181.4 77.9672 181.743 76.0246C181.971 75.5675 182.543 75.2247 183 74.8818Z" fill="#E87D70"/>
<path d="M101.437 93.8514C101.437 109.85 101.437 125.734 101.322 141.732C90.9233 126.648 80.8671 111.45 75.6105 93.7371C73.4393 86.5378 77.2103 83.1096 84.5239 85.0522C90.809 86.7664 95.8371 90.9945 101.437 93.8514Z" fill="#E87C70"/>
<path d="M191.37 226.067C167.258 226.067 143.032 226.067 118.92 226.067C119.149 222.41 119.377 218.753 119.606 215.097C143.032 215.097 166.459 215.097 189.885 215.097C190.342 218.868 190.913 222.41 191.37 226.067Z" fill="#E97C6F"/>
<path d="M155.488 196.241C159.145 196.241 162.23 198.984 162.344 202.184C162.459 205.955 159.373 209.154 155.831 209.04C152.402 208.926 148.86 205.612 148.86 202.298C148.746 199.098 151.945 196.241 155.488 196.241Z" fill="#323142"/>
<path d="M174.344 100.594C174.687 100.251 175.029 100.022 175.372 99.6794C175.029 100.022 174.687 100.365 174.344 100.594Z" fill="#E4DBD3"/>
<path d="M171.029 103.222C171.372 102.879 171.829 102.651 172.172 102.308C171.829 102.651 171.486 102.879 171.029 103.222Z" fill="#E3DCD4"/>
<path d="M155.933 160.436C161.876 160.436 167.932 160.436 173.875 160.436C178.446 160.436 181.531 163.293 181.417 167.293C181.417 171.178 178.674 173.921 174.103 174.035C161.876 174.149 149.534 174.149 137.307 174.035C132.964 174.035 129.993 171.064 129.993 167.293C129.993 163.522 133.307 160.551 137.764 160.551C143.935 160.436 149.877 160.436 155.933 160.436Z" fill="#F97557"/>
<path d="M181.611 93.7924C181.602 94.3756 181.371 94.8351 181.077 94.8174C180.783 94.7997 180.551 94.3403 180.56 93.7394C180.569 93.1562 180.8 92.6967 181.094 92.7144C181.397 92.7497 181.62 93.2092 181.611 93.7924Z" fill="#D65A0A"/>
</svg>
